<?xml version="1.0" standalone="no"?>
<!DOCTYPE svg PUBLIC "-//W3C//DTD SVG 20010904//EN"
 "http://www.w3.org/TR/2001/REC-SVG-20010904/DTD/svg10.dtd">
<svg version="1.0" xmlns="http://www.w3.org/2000/svg"
 width="1000.000000pt" height="667.000000pt" viewBox="0 0 1000.000000 667.000000"
 preserveAspectRatio="xMidYMid meet">

<g transform="translate(0.000000,667.000000) scale(0.100000,-0.100000)"
fill="#000000" stroke="none">
<path d="M0 4736 l0 -1933 55 -6 c36 -4 64 -1 80 7 16 8 40 11 69 6 25 -4 51
-3 58 2 16 10 122 8 163 -4 55 -15 135 -19 158 -7 22 11 127 118 127 130 0 3
18 29 40 59 22 29 45 69 51 89 7 19 17 41 23 47 17 16 5 125 -14 134 -8 4 -32
15 -54 24 -21 9 -36 20 -32 23 3 4 -2 15 -11 25 -15 17 -15 20 -3 28 9 6 16 6
18 0 2 -6 10 -10 18 -10 8 0 13 -6 11 -13 -1 -6 6 -11 15 -9 9 1 19 -6 23 -18
3 -11 13 -20 21 -20 8 0 17 -7 20 -15 4 -10 17 -14 40 -12 29 2 36 7 49 40 8
20 15 45 15 55 0 10 6 24 12 30 10 10 10 15 -2 22 -13 8 -13 10 1 10 18 0 59
41 59 58 0 7 6 12 13 12 8 0 28 19 45 43 17 23 47 59 66 80 20 21 36 42 36 47
0 5 6 13 13 17 13 8 65 90 79 126 4 9 12 17 17 17 6 0 8 7 4 15 -3 9 -1 15 5
13 16 -5 62 55 62 80 0 15 -9 26 -27 33 -48 18 -68 16 -71 -8 -2 -13 -11 -23
-25 -25 -12 -2 -28 -15 -35 -30 -9 -20 -21 -28 -40 -29 -64 -3 -78 -6 -96 -16
-25 -14 -76 3 -76 26 0 9 -9 22 -21 29 -16 10 -19 19 -15 38 6 23 2 28 -44 47
-27 11 -50 26 -50 33 0 6 -6 14 -13 17 -16 6 -34 68 -42 150 -6 52 -9 57 -30
57 -13 0 -27 5 -31 11 -4 8 -9 7 -15 -2 -6 -10 -9 -11 -9 -1 0 6 -7 12 -15 12
-11 0 -15 -12 -15 -45 0 -33 -5 -50 -20 -62 -11 -10 -20 -23 -20 -29 0 -12
-34 -15 -76 -8 -37 6 -58 80 -29 104 19 16 19 34 0 27 -8 -4 -17 -2 -20 3 -4
6 5 10 19 10 30 0 31 2 11 40 -14 26 -17 28 -47 19 -40 -11 -57 4 -83 76 -10
28 -21 52 -24 55 -4 3 -12 17 -19 33 -6 15 -24 32 -39 38 -16 6 -36 15 -45 20
-34 18 -64 9 -97 -26 -59 -65 -118 -35 -109 56 3 31 7 34 45 42 28 5 44 14 48
27 4 11 10 20 15 20 22 0 -18 159 -46 185 -13 12 -24 27 -24 34 0 6 -4 11 -8
11 -14 0 -14 70 0 71 7 1 23 3 35 4 22 2 85 -17 158 -50 22 -9 50 -17 63 -17
25 -1 100 62 127 107 10 17 21 32 24 35 16 14 111 168 111 181 0 8 13 39 30
70 16 31 27 59 23 62 -3 4 1 9 10 13 9 3 13 12 10 21 -4 9 1 21 12 29 10 7 15
20 12 29 -5 10 0 15 13 15 21 0 40 27 40 58 0 10 -16 34 -36 52 -21 19 -32 35
-26 39 16 10 32 59 26 76 -4 8 -13 15 -20 15 -8 0 -18 8 -21 18 -4 9 -11 20
-17 25 -7 5 -6 10 4 17 13 8 11 11 -7 16 -13 4 -23 9 -23 13 0 4 -10 18 -22
30 l-21 24 24 18 c17 13 27 15 36 7 10 -8 13 -5 13 11 l0 21 20 -20 c11 -11
20 -29 20 -40 0 -11 6 -19 12 -17 7 1 14 -9 16 -22 2 -13 12 -26 23 -28 10 -3
20 -10 21 -17 0 -6 2 -16 2 -22 1 -6 16 -23 33 -38 19 -16 54 -71 86 -134 66
-130 74 -158 50 -170 -10 -5 -23 -7 -30 -5 -6 2 -14 -1 -18 -6 -9 -16 -23 -13
-21 3 0 8 -2 15 -6 15 -5 1 -8 -2 -7 -5 0 -4 -13 -16 -30 -26 -17 -11 -31 -25
-31 -30 0 -10 -46 -71 -90 -119 -20 -23 -55 -73 -55 -79 0 -6 -16 -26 -48 -61
-9 -10 -17 -22 -17 -25 0 -3 -14 -23 -30 -44 -16 -21 -30 -41 -30 -45 0 -3
-11 -21 -24 -38 -31 -42 -42 -100 -21 -120 8 -9 15 -21 15 -27 0 -8 11 -11 30
-8 24 4 30 1 30 -14 0 -10 5 -18 12 -18 6 0 8 -3 5 -6 -4 -4 2 -19 13 -33 17
-25 24 -27 89 -26 63 1 73 -2 101 -27 20 -17 30 -33 26 -43 -3 -8 -1 -15 3
-15 5 0 14 -12 20 -27 47 -113 61 -123 191 -137 27 -3 40 -16 67 -69 24 -49
136 -167 193 -205 14 -9 31 -25 38 -34 7 -10 20 -18 27 -18 8 0 22 -11 31 -25
23 -35 47 -31 80 11 16 20 50 59 75 87 43 47 49 50 72 40 15 -7 43 -45 76
-105 89 -159 111 -213 118 -283 6 -61 4 -70 -33 -142 -21 -43 -55 -98 -76
-122 -21 -24 -38 -47 -38 -52 0 -4 -14 -23 -30 -41 -17 -18 -33 -44 -37 -58
-3 -14 -11 -29 -18 -35 -15 -13 -40 -58 -37 -67 1 -5 -8 -8 -21 -8 -20 -1 -20
-2 -4 -11 16 -10 14 -15 -27 -56 -46 -46 -62 -93 -31 -93 9 0 15 9 15 25 0 22
9 30 26 23 3 -2 10 5 15 15 6 9 14 17 20 17 11 0 66 56 89 90 8 12 21 28 28
36 6 7 12 17 12 23 0 5 9 13 20 16 11 3 20 12 20 20 0 7 7 15 15 19 8 3 15 9
14 13 -3 20 2 33 13 30 7 -1 14 8 16 21 2 12 12 27 22 32 10 5 22 19 25 30 3
11 12 20 20 20 7 0 15 7 19 15 3 8 10 15 16 15 10 0 50 -36 50 -46 0 -3 16
-20 35 -38 19 -19 35 -38 35 -44 0 -10 38 -82 50 -92 5 -5 17 -27 83 -155 18
-33 34 -62 37 -65 14 -13 84 -148 114 -220 11 -25 22 -47 25 -50 14 -12 66
-111 76 -145 12 -42 18 -55 24 -55 4 0 27 -39 51 -87 24 -49 53 -100 64 -115
23 -33 18 -43 -15 -28 -44 20 -116 147 -154 269 -9 29 -22 60 -30 67 -7 8 -16
19 -19 26 -3 10 -8 8 -16 -4 -6 -9 -17 -15 -25 -12 -11 5 -15 -2 -15 -24 0
-40 -9 -62 -25 -62 -16 0 -20 -6 -28 -41 -5 -20 -1 -33 20 -53 29 -30 25 -44
-9 -29 -27 11 -118 5 -118 -8 0 -14 -37 -11 -214 21 -92 17 -173 27 -180 23
-9 -5 -11 -15 -6 -29 6 -16 23 -24 72 -34 34 -6 68 -15 73 -18 6 -4 15 -7 20
-7 6 0 35 -5 65 -10 57 -9 70 -10 108 -13 12 -1 22 -8 22 -15 0 -14 61 -61
111 -86 23 -11 31 -10 60 5 19 10 61 22 94 26 138 19 183 4 211 -69 10 -27 21
-50 25 -53 4 -3 17 -26 28 -52 19 -44 19 -48 3 -66 -17 -20 -142 -74 -198 -86
-24 -5 -30 -12 -32 -36 -1 -16 2 -31 8 -35 5 -3 10 -1 10 5 0 6 5 8 10 5 6 -3
10 -13 10 -21 0 -11 -6 -13 -20 -9 -12 4 -20 2 -20 -5 0 -7 -7 -9 -16 -6 -9 3
-12 2 -9 -4 4 -6 16 -9 28 -8 12 2 24 -1 27 -7 3 -5 -10 -11 -28 -13 -18 -2
-30 -8 -27 -13 9 -13 -125 -11 -166 2 -43 15 -115 83 -138 131 -16 35 -17 36
-29 18 -8 -13 -8 -20 -2 -20 6 0 2 -10 -10 -22 -23 -25 -24 -38 -9 -124 9 -55
17 -69 62 -117 29 -30 61 -60 72 -66 14 -9 16 -14 7 -17 -26 -11 -40 -35 -47
-75 -4 -23 -20 -67 -36 -98 -16 -30 -29 -61 -29 -69 0 -7 -13 -21 -30 -30 -16
-9 -30 -20 -30 -24 0 -5 -4 -8 -10 -8 -5 0 -10 7 -10 16 0 9 -5 13 -13 10 -6
-3 -20 -9 -29 -12 -10 -4 -18 -16 -18 -30 0 -12 -5 -26 -11 -30 -6 -3 -9 -15
-6 -25 3 -10 -1 -26 -9 -36 -7 -10 -14 -28 -14 -40 0 -18 -6 -23 -27 -23 -35
0 -44 -7 -71 -51 -12 -20 -32 -40 -45 -43 l-22 -7 23 -11 c18 -9 22 -17 17
-35 -7 -29 -6 -29 52 5 26 16 75 41 108 56 65 31 116 78 190 176 27 36 146
162 265 280 202 202 301 287 321 274 5 -3 9 -1 9 4 0 5 21 30 46 56 53 52 93
60 137 26 14 -11 30 -20 36 -20 6 0 18 -12 28 -28 9 -15 18 -29 20 -31 2 -3 9
3 16 12 11 16 13 16 24 -2 10 -16 7 -26 -17 -65 -23 -36 -25 -43 -10 -34 10 7
24 22 31 35 7 13 16 23 22 23 11 0 -40 -65 -83 -105 l-33 -30 18 28 c10 15 15
30 12 33 -3 3 -12 -7 -21 -24 -8 -16 -13 -32 -9 -35 3 -3 -15 -30 -39 -59 -89
-105 -199 -248 -191 -248 4 0 43 33 86 74 42 40 77 70 77 66 0 -4 -6 -13 -13
-19 -8 -6 -25 -32 -38 -58 -13 -27 -70 -112 -126 -191 -57 -79 -117 -173 -134
-210 -18 -37 -36 -68 -41 -70 -17 -7 -7 -32 12 -32 11 0 20 -2 20 -5 0 -21
-42 -78 -102 -139 -39 -39 -82 -88 -95 -109 -13 -21 -34 -42 -46 -46 -12 -5
-35 -24 -50 -42 -15 -18 -27 -28 -27 -22 0 5 26 43 59 82 81 100 90 118 66
135 -17 12 -17 16 -6 30 20 24 6 31 -17 10 -24 -24 -161 -180 -232 -264 -30
-36 -62 -73 -72 -83 -10 -10 -18 -22 -18 -27 0 -10 -137 -183 -209 -266 -20
-23 -55 -63 -78 -90 -74 -88 -80 -94 -87 -94 -8 0 59 96 169 240 43 58 114
152 157 210 88 118 198 260 276 357 28 35 52 66 52 69 0 15 -38 -23 -112 -114
-116 -141 -147 -178 -186 -221 -35 -38 -253 -304 -287 -350 -64 -86 -139 -171
-151 -171 -8 0 -14 -4 -14 -10 0 -5 -16 -30 -35 -56 -19 -25 -35 -50 -35 -55
0 -5 282 -9 708 -9 l709 0 43 133 c85 264 245 748 337 1022 52 154 97 292 100
308 l6 27 -89 1 c-110 1 -132 3 -144 15 -5 5 5 46 26 103 29 76 33 99 25 120
-5 14 -12 40 -16 56 -7 30 -59 138 -133 275 -38 69 -100 192 -141 280 -9 19
-19 37 -23 40 -7 6 -73 118 -99 172 -10 20 -23 38 -27 40 -13 5 -52 116 -46
131 3 8 -6 18 -21 25 -14 6 -25 19 -25 27 0 9 -4 14 -10 10 -5 -3 -17 9 -26
27 -11 22 -13 33 -5 36 6 2 9 7 7 11 -3 4 9 8 27 8 57 0 87 7 87 20 0 7 8 12
18 11 45 -3 53 3 60 45 2 12 29 37 41 37 6 0 12 6 12 13 4 43 19 78 30 72 5
-4 9 -2 9 3 0 19 -31 22 -56 6 -31 -21 -93 -15 -249 21 -166 39 -153 28 -234
184 -39 76 -71 144 -71 152 0 12 -75 171 -157 334 -110 218 -215 417 -234 446
-37 54 -134 248 -127 254 3 3 17 3 32 -1 19 -4 26 -13 26 -30 0 -23 1 -24 33
-11 37 16 50 15 137 -8 36 -9 78 -19 93 -22 18 -4 26 -10 23 -19 -8 -20 27
-21 46 -2 20 20 63 23 105 7 15 -6 57 -11 93 -11 35 0 74 -4 85 -8 28 -11 205
-362 205 -406 0 -13 6 -27 14 -31 18 -10 56 -82 56 -105 0 -10 -6 -18 -14 -18
-7 0 -19 -7 -27 -16 -10 -13 -10 -19 0 -37 12 -18 11 -22 -5 -34 -16 -12 -10
-13 43 -7 60 6 61 5 75 -23 7 -16 23 -29 36 -31 12 -2 22 -7 22 -12 0 -4 23
-13 50 -20 28 -7 50 -16 50 -21 0 -5 7 -9 15 -9 8 0 15 -7 15 -15 0 -8 5 -15
10 -15 6 0 10 -6 10 -14 0 -17 93 -27 133 -14 34 12 45 5 26 -19 -12 -15 -12
-16 4 -10 10 4 21 7 23 7 2 0 4 6 4 14 0 15 51 10 62 -7 9 -14 33 -19 98 -18
104 0 153 8 166 26 10 14 23 16 76 11 35 -3 75 -5 89 -6 14 0 38 -9 52 -20 27
-21 67 -19 117 7 14 7 30 13 37 13 6 0 13 5 15 11 3 9 9 9 25 0 13 -6 24 -7
27 -2 4 5 22 4 43 -2 l38 -12 -30 -6 c-27 -5 -25 -6 25 -17 120 -25 259 -34
261 -17 3 18 -155 43 -165 27 -4 -6 -13 -9 -21 -6 -11 5 -10 12 6 39 13 22 16
35 9 40 -18 11 0 25 34 25 31 0 66 -25 57 -39 -2 -3 25 -5 60 -3 74 4 113 -14
90 -41 -10 -13 -9 -18 10 -28 l22 -11 -22 -17 c-22 -17 -20 -18 86 -34 59 -9
135 -19 169 -23 l61 -6 7 32 c10 51 7 60 -16 60 l-23 0 21 18 c12 9 25 28 29
42 4 14 15 34 25 45 53 58 90 189 58 200 -18 5 -631 29 -697 26 -29 -1 -61 -6
-70 -10 -10 -6 -23 -5 -33 0 -10 5 -29 7 -43 3 -22 -5 -25 -11 -21 -30 5 -19
2 -24 -14 -24 -13 0 -22 9 -26 25 -7 27 -18 30 -137 39 -79 6 -97 1 -97 -27 0
-11 -3 -17 -7 -13 -5 4 -8 13 -8 19 0 17 -53 27 -150 27 -49 1 -114 1 -142 1
-29 1 -59 0 -65 0 -7 -1 -65 1 -129 5 -119 7 -189 1 -189 -16 0 -6 8 -10 17
-10 12 0 14 -3 6 -11 -6 -6 -23 -9 -39 -7 -21 2 -29 8 -29 23 0 11 -13 32 -30
47 l-30 28 39 34 c22 19 53 38 69 43 17 4 35 17 41 28 15 26 36 48 36 38 0
-11 20 19 20 31 0 5 -7 3 -15 -4 -9 -8 -15 -8 -15 -2 0 6 4 12 9 14 9 3 94 78
255 225 166 151 258 223 283 223 13 0 29 10 39 26 17 25 16 28 -15 102 -18 42
-42 102 -52 133 -11 31 -81 178 -156 325 -213 422 -214 425 -239 492 -32 84
-72 162 -83 162 -16 0 -23 -58 -11 -81 7 -12 31 -47 54 -78 23 -31 50 -72 58
-91 9 -19 31 -66 48 -105 18 -38 41 -88 51 -109 10 -22 29 -74 40 -115 12 -42
52 -135 90 -207 38 -72 69 -140 69 -151 0 -19 -32 -48 -127 -113 -12 -8 -59
-42 -105 -75 -94 -68 -150 -104 -160 -105 -4 0 -13 20 -19 45 -16 64 -40 74
-89 40 -49 -34 -53 -53 -24 -111 13 -25 21 -50 18 -55 -3 -5 -48 -39 -100 -76
-53 -38 -105 -74 -115 -82 -16 -12 -24 -12 -44 -1 -18 10 -28 10 -38 2 -18
-15 -27 -5 -27 29 0 17 -9 35 -25 47 -14 11 -25 29 -25 41 0 24 -40 111 -52
111 -4 0 -8 9 -8 20 0 11 -9 28 -20 37 -11 10 -20 29 -20 43 0 25 -77 211
-126 305 -46 88 -131 259 -153 307 -12 27 -34 69 -50 96 -15 26 -34 65 -41 85
-6 21 -56 127 -110 235 -135 271 -146 298 -129 318 17 20 16 63 -2 92 -10 15
-23 22 -46 22 -41 0 -45 26 -7 40 21 8 29 7 38 -6 10 -13 22 -15 64 -9 46 6
51 9 48 28 -3 19 -9 22 -44 19 -22 -1 -43 2 -47 8 -4 6 5 10 19 10 14 0 28 5
31 10 3 6 15 10 26 10 10 0 19 4 19 10 0 5 6 7 14 4 9 -3 13 1 13 13 -2 14 4
17 24 15 14 -2 31 4 39 12 7 9 21 16 32 16 10 0 21 7 24 15 8 20 34 19 34 0 0
-13 8 -15 38 -10 24 4 32 3 23 -3 -8 -6 -9 -12 -3 -16 6 -3 24 5 40 19 16 14
34 25 40 25 16 0 23 -31 10 -47 -26 -31 -17 -38 43 -35 54 3 60 2 69 -20 19
-46 37 -61 69 -56 20 3 32 0 36 -10 10 -27 94 -5 154 41 53 41 53 42 47 84 -7
51 12 59 41 17 43 -61 64 -82 88 -86 14 -3 25 -2 25 2 0 7 -34 83 -116 259
-24 51 -44 96 -44 100 0 4 -11 18 -24 30 -23 22 -26 22 -122 11 -55 -6 -133
-15 -174 -20 -41 -5 -91 -13 -110 -19 -19 -7 -51 -14 -70 -17 -19 -3 -57 -9
-85 -14 -72 -14 -155 -19 -160 -9 -3 4 1 10 7 12 31 13 -72 4 -242 -21 l-185
-27 -1 -27 c-1 -31 -20 -58 -40 -58 -36 0 -14 -60 131 -354 59 -119 106 -219
104 -221 -2 -2 -20 -6 -39 -10 l-36 -6 -44 88 c-25 48 -49 91 -53 94 -14 10
-39 62 -46 94 -7 32 -33 44 -55 26 -9 -8 -10 -23 -4 -58 4 -27 11 -70 14 -96
4 -38 10 -50 28 -57 13 -5 26 -15 29 -23 13 -34 -21 -97 -51 -97 -12 0 -11 -5
6 -20 12 -11 25 -20 31 -20 13 0 19 -20 16 -58 -2 -18 1 -35 6 -38 5 -3 7 -9
4 -14 -6 -9 12 -42 61 -112 l31 -44 6 -298 c5 -207 11 -314 21 -350 18 -66 31
-257 15 -236 -21 30 -119 233 -119 248 0 8 -22 56 -49 106 -62 116 -230 445
-260 511 -12 28 -33 68 -46 90 -13 22 -21 48 -18 58 2 9 0 17 -5 17 -17 0 -45
52 -33 60 17 10 2 40 -16 33 -12 -5 -14 -1 -8 15 5 16 2 22 -9 22 -9 0 -16 5
-16 10 0 6 5 10 10 10 6 0 10 7 10 15 0 18 -20 20 -20 3 -1 -7 -10 -2 -20 11
-23 26 -30 115 -8 93 30 -30 57 -1 34 36 -4 6 -4 17 -1 22 3 6 1 10 -4 10 -6
0 -11 -7 -11 -16 0 -9 -7 -14 -17 -12 -22 4 -29 28 -9 28 9 0 16 8 16 18 0 11
9 27 19 36 22 20 11 43 -20 42 -26 -1 -28 18 -3 22 24 3 40 57 28 94 -4 13 -1
24 7 29 11 7 10 9 -4 9 -14 0 -17 5 -12 21 5 14 2 25 -6 30 -10 6 -6 9 13 9
15 0 30 5 33 10 3 6 17 10 31 10 15 0 24 6 24 15 0 8 5 15 10 15 6 0 10 -9 10
-20 0 -30 18 -24 22 7 2 19 10 27 28 30 13 2 29 8 34 13 13 13 46 13 46 0 0
-6 8 -5 20 2 12 8 19 20 16 30 -2 11 3 20 14 23 10 3 22 19 25 35 4 17 11 30
16 30 6 0 7 9 4 20 -6 20 9 28 20 10 9 -15 28 -12 22 3 -3 8 -2 20 3 27 6 10
15 8 39 -9 25 -18 30 -19 24 -5 -5 13 -2 15 18 9 16 -4 20 -3 11 3 -20 14 6
54 30 46 18 -5 65 20 61 34 -2 4 5 7 15 7 9 1 35 9 57 18 22 10 52 19 68 21
16 2 34 9 40 15 8 8 -223 11 -886 11 l-897 0 0 -1934z m1505 1834 c3 -5 1 -10
-4 -10 -6 0 -11 5 -11 10 0 6 2 10 4 10 3 0 8 -4 11 -10z m333 -72 c-3 -8 -59
-22 -143 -36 -163 -28 -183 -34 -195 -64 -9 -23 -9 -23 -9 3 -1 15 5 32 12 38
12 9 87 27 197 46 14 3 41 9 60 14 53 13 82 13 78 -1z m-1245 -88 c8 0 8 -3 1
-10 -13 -13 -243 -54 -252 -46 -3 3 -3 8 -1 10 10 9 215 54 227 50 8 -2 19 -4
25 -4z m2037 -19 c14 -27 13 -31 -11 -31 -12 0 -17 -4 -13 -11 4 -8 0 -9 -15
-4 -15 5 -21 2 -21 -9 0 -9 -9 -16 -20 -16 -11 0 -20 -4 -20 -10 0 -5 -4 -10
-10 -10 -5 0 -10 9 -10 20 0 11 5 20 12 20 6 0 8 3 4 8 -4 4 -12 7 -17 7 -5 0
-9 3 -9 8 0 4 0 12 0 17 0 15 47 12 54 -2 4 -9 10 -6 22 10 20 27 40 28 54 3z
m-2315 -41 c-3 -5 -14 -10 -23 -9 -14 0 -13 2 3 9 27 11 27 11 20 0z m2169
-31 c26 -26 28 -31 15 -44 -8 -7 -26 -17 -41 -20 -23 -6 -29 -2 -44 26 -16 32
-16 33 6 51 29 23 30 23 64 -13z m-457 -35 c-3 -3 -12 -4 -19 -1 -8 3 -5 6 6
6 11 1 17 -2 13 -5z m-1047 -98 c0 -3 -4 -8 -10 -11 -5 -3 -10 -1 -10 4 0 6 5
11 10 11 6 0 10 -2 10 -4z m749 -45 c-14 -4 -30 19 -22 33 3 5 12 1 20 -10 10
-13 10 -20 2 -23z m-689 -2 c0 -11 -4 -17 -10 -14 -5 3 -10 13 -10 21 0 8 5
14 10 14 6 0 10 -9 10 -21z m-342 -667 c9 -7 8 -13 -8 -27 -22 -20 -40 -14
-22 8 7 8 9 17 5 20 -9 10 9 8 25 -1z m347 -225 c14 -20 25 -40 25 -45 0 -5 7
-15 15 -22 12 -10 23 -5 61 26 63 52 54 60 181 -153 58 -97 68 -143 31 -143
-13 0 -57 -10 -98 -21 -141 -38 -138 -38 -152 -22 -7 8 -23 19 -35 24 -13 5
-28 21 -34 36 -5 15 -27 43 -48 63 -29 26 -46 34 -68 32 -24 -2 -38 6 -72 39
-26 27 -38 45 -31 49 6 4 12 29 13 56 2 40 6 51 25 59 12 5 22 15 22 22 0 6
18 19 40 29 22 10 40 21 40 25 0 19 63 -21 85 -54z m-639 -1246 c8 -11 8 -18
0 -27 -14 -15 -27 -8 -19 11 4 11 -2 15 -21 15 -24 0 -33 10 -20 22 9 9 48 -4
60 -21z m504 -307 c0 -8 7 -14 15 -14 19 0 19 -14 0 -30 -14 -11 -13 -15 5
-27 20 -14 21 -16 3 -28 -29 -20 -62 -25 -56 -9 3 8 11 14 19 14 27 0 14 20
-13 21 l-28 1 25 8 c14 5 18 9 10 10 -20 3 -22 3 -42 -5 -13 -5 -18 -2 -18 10
0 12 -6 16 -20 12 -11 -3 -18 -1 -14 4 3 5 0 9 -5 9 -6 0 -11 5 -11 11 0 7 7
8 18 4 30 -12 37 -10 34 6 -2 13 7 16 38 16 27 0 40 -4 40 -13z m-293 -46 c-3
-8 -6 -5 -6 6 -1 11 2 17 5 13 3 -3 4 -12 1 -19z m2743 -113 c0 -8 -7 -15 -16
-15 -14 0 -14 3 -4 15 7 8 14 15 16 15 2 0 4 -7 4 -15z m386 0 c-24 -18 -36
-19 -36 -2 0 7 12 14 28 15 26 1 26 1 8 -13z m611 -71 c-3 -3 -12 -4 -19 -1
-8 3 -5 6 6 6 11 1 17 -2 13 -5z m-1644 -539 c-3 -9 -8 -14 -10 -11 -3 3 -2 9
2 15 9 16 15 13 8 -4z m-73 -25 c0 -5 -8 -10 -17 -10 -15 0 -16 2 -3 10 19 12
20 12 20 0z m360 -1079 c-6 -11 -9 -24 -8 -28 5 -16 -36 -64 -66 -80 -17 -9
-35 -21 -39 -27 -5 -7 -7 -3 -5 9 2 12 -2 19 -10 17 -10 -2 -10 2 0 18 7 10
15 16 18 11 3 -4 12 -10 21 -13 13 -5 16 0 13 27 -2 26 4 39 28 62 l30 28 -6
-25 c-6 -21 -5 -22 4 -7 6 9 8 22 5 27 -3 6 -3 15 1 21 12 20 26 -18 14 -40z
m-868 -1173 c-7 -7 -12 -8 -12 -2 0 14 12 26 19 19 2 -3 -1 -11 -7 -17z m-72
-92 c0 -2 -8 -10 -17 -17 -16 -13 -17 -12 -4 4 13 16 21 21 21 13z m-36 -60
c-6 -16 -34 -30 -34 -18 0 10 22 32 32 32 4 0 5 -6 2 -14z"/>
<path d="M2943 1798 c-5 -7 -7 -25 -4 -39 l6 -26 23 29 c13 15 19 28 12 28 -6
0 -13 -7 -17 -16 -4 -12 -8 -13 -14 -3 -4 7 -3 19 3 26 6 7 8 13 5 13 -2 0 -9
-6 -14 -12z"/>
<path d="M2887 1719 c7 -7 15 -10 18 -7 3 3 -2 9 -12 12 -14 6 -15 5 -6 -5z"/>
<path d="M1825 6660 c3 -5 12 -7 20 -3 21 7 19 13 -6 13 -11 0 -18 -4 -14 -10z"/>
<path d="M8780 6653 c1 -43 55 -163 74 -163 13 0 0 134 -16 159 -16 26 -58 29
-58 4z"/>
<path d="M9106 6662 c-2 -4 -7 -24 -11 -44 -4 -21 -13 -42 -21 -49 -9 -7 -12
-25 -8 -54 4 -35 2 -44 -12 -47 -14 -2 -18 -15 -18 -61 -1 -31 2 -57 5 -57 3
0 6 -16 7 -35 1 -19 6 -43 11 -53 5 -9 11 -41 15 -69 5 -43 3 -53 -9 -53 -21
0 -24 -91 -4 -116 4 -5 5 -21 2 -35 -6 -23 -5 -22 33 10 92 80 244 248 244
270 0 3 10 18 23 33 12 15 47 70 77 123 55 95 55 95 95 95 44 0 71 18 99 65
10 17 30 42 44 58 l26 27 -297 0 c-162 0 -298 -3 -301 -8z m-16 -306 c0 -3 -4
-8 -10 -11 -5 -3 -10 -1 -10 4 0 6 5 11 10 11 6 0 10 -2 10 -4z m7 -108 c-3
-8 -6 -5 -6 6 -1 11 2 17 5 13 3 -3 4 -12 1 -19z"/>
<path d="M9816 6633 c11 -32 11 -40 -2 -49 -13 -11 -20 -34 -9 -34 11 0 50 26
67 45 20 23 24 14 6 -15 -16 -25 0 -40 17 -16 18 25 87 31 83 7 -3 -11 -13
-15 -31 -14 -33 2 -36 -14 -4 -26 19 -8 20 -10 5 -15 -54 -18 -54 -19 -36 -23
16 -4 16 -6 2 -20 -11 -11 -26 -14 -56 -9 -23 4 -47 11 -53 16 -9 8 -53 8
-122 1 -15 -1 -18 -31 -3 -31 6 0 10 -7 10 -15 0 -8 7 -15 15 -15 9 0 12 -6 9
-15 -4 -8 -12 -15 -20 -15 -8 0 -14 -7 -14 -15 0 -8 7 -15 15 -15 8 0 15 5 15
10 0 16 18 12 40 -10 24 -24 26 -40 6 -40 -21 0 -30 -20 -17 -33 13 -13 15
-37 2 -37 -5 0 -11 9 -14 20 -6 24 -22 26 -31 5 -3 -9 0 -15 9 -15 17 0 20
-16 5 -25 -6 -4 -19 4 -29 16 -11 13 -20 18 -24 12 -4 -6 0 -16 8 -23 8 -7 15
-19 15 -26 0 -8 7 -14 15 -14 8 0 15 4 15 9 0 9 38 24 54 22 4 -1 14 4 22 10
8 7 18 9 21 5 4 -4 13 4 20 16 10 18 12 20 13 6 0 -12 8 -18 23 -18 13 0 31
-6 41 -13 16 -12 15 -16 -8 -67 -14 -30 -43 -89 -66 -130 -38 -70 -39 -73 -10
-40 16 19 51 66 76 103 57 86 75 107 91 107 10 0 13 50 13 230 l0 230 -38 0
c-26 0 -45 -7 -57 -20 -14 -15 -21 -17 -32 -9 -10 9 -13 8 -14 -2 0 -8 -4 -4
-9 9 -5 12 -18 22 -28 22 -18 0 -19 -3 -6 -37z m-96 -173 c0 -13 -5 -18 -15
-14 -16 7 -19 17 -8 27 12 13 23 7 23 -13z"/>
<path d="M8630 6574 c1 -5 12 -27 25 -49 14 -22 28 -47 32 -55 3 -8 32 -49 63
-90 31 -41 60 -88 64 -103 l7 -29 -28 27 c-15 14 -46 35 -67 46 -36 17 -41 17
-56 4 -14 -13 -22 -14 -44 -4 -28 13 -51 3 -26 -11 8 -5 35 -27 60 -49 24 -23
47 -41 51 -41 4 0 18 -14 30 -31 l22 -31 -49 7 c-27 4 -56 13 -64 20 -15 13
-171 57 -178 51 -2 -2 9 -17 24 -32 14 -16 33 -39 41 -51 9 -13 21 -23 29 -23
7 0 18 -9 24 -20 6 -11 24 -27 40 -35 17 -9 30 -20 30 -26 0 -17 -44 -3 -97
31 -26 17 -51 30 -56 30 -12 0 46 -80 59 -80 6 0 18 -8 27 -18 8 -9 41 -30 71
-46 85 -44 75 -57 -23 -31 -34 9 -59 11 -66 5 -6 -5 -20 -9 -30 -9 -11 0 -45
-9 -75 -20 -43 -15 -65 -18 -100 -11 -46 8 -60 6 -60 -11 0 -6 4 -8 8 -5 4 2
16 -24 26 -60 10 -35 22 -64 25 -64 4 0 12 -15 19 -32 6 -18 28 -51 47 -73 19
-21 34 -44 32 -50 -2 -5 -21 -13 -43 -16 -21 -3 -59 -18 -84 -32 -25 -15 -52
-27 -61 -27 -33 0 -68 -43 -73 -90 -3 -24 -9 -46 -14 -48 -5 -1 -8 -23 -6 -47
4 -44 4 -45 -41 -65 -30 -14 -45 -27 -45 -39 0 -11 -4 -21 -8 -23 -5 -1 -12
-16 -16 -33 -4 -16 -5 -27 -1 -23 4 3 14 0 23 -8 10 -7 26 -20 37 -28 30 -22
14 -28 -70 -27 -53 0 -81 -4 -91 -13 -11 -12 -9 -16 15 -26 34 -14 47 -48 23
-58 -9 -4 -52 -7 -94 -7 -43 1 -78 -2 -78 -5 0 -3 11 -21 24 -41 20 -30 57
-101 60 -119 1 -3 4 -10 8 -16 5 -8 5 -36 -1 -51 -1 -1 -13 4 -27 12 -14 7
-41 11 -63 8 -27 -4 -51 2 -91 21 -29 14 -55 24 -58 22 -2 -3 -23 9 -45 25
l-42 30 -18 -22 -18 -22 -29 28 c-16 16 -32 26 -35 23 -10 -9 24 -76 46 -92
25 -17 41 -13 32 9 -3 8 -1 15 4 15 15 0 50 -43 56 -70 6 -24 29 -53 103 -131
35 -36 38 -65 7 -71 -15 -3 98 -54 142 -64 14 -4 33 8 65 41 25 25 90 77 145
114 99 68 147 107 278 224 79 71 173 137 288 203 46 26 104 63 128 81 67 50
211 184 211 195 0 6 -18 50 -40 99 -22 49 -48 123 -59 166 -56 231 -65 273
-66 328 0 33 3 92 8 130 16 135 17 235 4 260 -21 41 -227 267 -227 249z"/>
<path d="M9656 6423 c-11 -11 -6 -23 9 -23 8 0 15 4 15 9 0 13 -16 22 -24 14z"/>
<path d="M1350 6360 c0 -5 5 -10 11 -10 5 0 7 5 4 10 -3 6 -8 10 -11 10 -2 0
-4 -4 -4 -10z"/>
<path d="M9650 6350 c0 -5 5 -10 10 -10 6 0 10 5 10 10 0 6 -4 10 -10 10 -5 0
-10 -4 -10 -10z"/>
<path d="M9712 6341 c2 -7 7 -12 11 -12 12 1 9 15 -3 20 -7 2 -11 -2 -8 -8z"/>
<path d="M9670 6320 c0 -13 18 -22 24 -11 3 5 -1 11 -9 15 -8 3 -15 1 -15 -4z"/>
<path d="M9640 6290 c0 -5 5 -10 10 -10 6 0 10 5 10 10 0 6 -4 10 -10 10 -5 0
-10 -4 -10 -10z"/>
<path d="M9016 6262 c-3 -6 -1 -14 5 -17 15 -10 25 3 12 16 -7 7 -13 7 -17 1z"/>
<path d="M2180 6240 c0 -5 5 -10 10 -10 6 0 10 5 10 10 0 6 -4 10 -10 10 -5 0
-10 -4 -10 -10z"/>
<path d="M9570 6231 c-5 -11 -10 -29 -10 -40 0 -12 -4 -21 -10 -21 -5 0 -10
-8 -10 -18 0 -20 -45 -92 -80 -130 -13 -14 -19 -29 -15 -41 5 -16 2 -18 -15
-14 -15 4 -20 1 -20 -16 0 -11 -5 -21 -11 -21 -6 0 -9 -6 -6 -12 6 -19 -21
-68 -38 -68 -8 0 -15 -7 -15 -15 0 -8 -6 -15 -13 -15 -6 0 -19 -15 -26 -32 -8
-18 -28 -46 -43 -63 -16 -16 -31 -40 -34 -52 -4 -13 -10 -23 -15 -23 -5 0 -9
-9 -9 -19 0 -11 -4 -23 -10 -26 -5 -3 -10 -14 -10 -23 0 -9 -7 -30 -15 -46
-16 -30 -24 -184 -11 -205 4 -6 11 -58 16 -117 7 -75 14 -112 26 -125 11 -12
14 -26 9 -41 -13 -41 -15 -162 -4 -198 31 -99 51 -112 101 -65 34 32 36 38 43
205 8 193 14 271 25 305 5 17 21 102 35 190 40 250 76 398 134 555 31 82 61
181 61 200 0 17 -19 11 -30 -9z"/>
<path d="M9630 6224 c0 -8 5 -12 10 -9 6 3 10 10 10 16 0 5 -4 9 -10 9 -5 0
-10 -7 -10 -16z"/>
<path d="M2081 6219 c-14 -5 -42 -9 -63 -7 -23 1 -44 -4 -53 -13 -14 -13 -13
-18 8 -37 l23 -22 55 19 c30 11 58 26 64 35 14 23 -4 36 -34 25z"/>
<path d="M9027 6224 c-9 -9 9 -58 24 -62 11 -4 12 -3 1 10 -7 9 -10 22 -6 31
5 15 -8 31 -19 21z"/>
<path d="M9640 6190 c0 -5 5 -10 11 -10 5 0 7 5 4 10 -3 6 -8 10 -11 10 -2 0
-4 -4 -4 -10z"/>
<path d="M9978 6068 c-10 -10 -18 -25 -18 -33 0 -8 -7 -15 -15 -15 -8 0 -15
-6 -15 -13 0 -7 -9 -18 -19 -24 -13 -8 -18 -20 -15 -35 2 -13 2 -17 -2 -10
-11 23 -26 13 -20 -13 5 -18 2 -27 -9 -31 -8 -4 -15 -13 -15 -20 0 -8 -7 -17
-15 -20 -8 -4 -15 -12 -15 -19 0 -7 -7 -15 -15 -19 -8 -3 -15 -12 -15 -20 0
-7 -7 -16 -15 -20 -18 -7 -20 -32 -2 -40 6 -3 2 -3 -11 0 -20 5 -22 3 -16 -20
4 -16 2 -26 -5 -26 -6 0 -11 5 -11 10 0 6 -4 10 -10 10 -14 0 -13 -27 1 -32 8
-3 6 -10 -5 -20 -9 -9 -16 -21 -16 -27 0 -6 -10 -15 -22 -22 -18 -10 -20 -9
-15 6 4 9 2 26 -4 37 -22 41 -29 -7 -30 -199 0 -103 -1 -219 -1 -258 0 -120 0
-127 7 -251 8 -120 7 -122 -15 -134 -12 -7 -20 -8 -16 -2 9 14 -25 92 -41 92
-7 0 -13 7 -13 15 0 8 -7 15 -15 15 -20 0 -19 -19 2 -42 15 -17 15 -18 0 -18
-10 0 -17 7 -17 15 0 8 -7 15 -15 15 -8 0 -15 -4 -15 -9 0 -4 -19 -21 -41 -36
-30 -19 -44 -24 -52 -16 -6 6 -14 11 -18 11 -6 0 -24 -135 -23 -172 0 -10 -3
-18 -7 -18 -7 0 -26 -37 -68 -135 -23 -53 -41 -161 -34 -200 4 -18 14 -24 43
-29 33 -5 43 -2 63 18 14 14 43 30 66 36 29 8 45 19 56 40 18 35 43 50 82 50
27 0 29 3 50 90 17 72 31 104 69 158 26 37 62 81 79 97 23 22 43 62 74 150 63
180 89 251 129 350 l37 90 3 260 c2 143 2 303 0 355 -3 91 -4 94 -20 78z
m-468 -1209 c0 -12 -29 -38 -42 -39 -5 0 -8 5 -8 10 0 6 7 10 15 10 8 0 15 7
15 15 0 8 5 15 10 15 6 0 10 -5 10 -11z"/>
<path d="M2000 6030 c0 -5 5 -10 11 -10 5 0 7 5 4 10 -3 6 -8 10 -11 10 -2 0
-4 -4 -4 -10z"/>
<path d="M1015 5850 c-4 -6 -4 -23 0 -38 l7 -27 10 28 c11 31 -3 60 -17 37z"/>
<path d="M1098 5783 c7 -3 16 -2 19 1 4 3 -2 6 -13 5 -11 0 -14 -3 -6 -6z"/>
<path d="M9680 5670 c0 -5 5 -10 10 -10 6 0 10 5 10 10 0 6 -4 10 -10 10 -5 0
-10 -4 -10 -10z"/>
<path d="M9490 5293 c-54 -20 -67 -109 -23 -155 24 -25 26 -31 14 -50 -11 -17
-11 -25 0 -45 12 -22 11 -26 -4 -35 -10 -5 -15 -13 -12 -19 9 -14 25 -11 25 6
0 21 17 19 30 -5 12 -22 30 -27 30 -8 0 6 -8 20 -17 31 -13 15 -15 21 -5 24
21 8 13 25 -9 18 -16 -5 -20 -4 -15 6 3 8 9 22 12 32 4 9 15 17 25 17 22 0 49
48 49 88 0 60 -55 112 -100 95z"/>
<path d="M6920 5026 c0 -2 7 -7 16 -10 8 -3 12 -2 9 4 -6 10 -25 14 -25 6z"/>
<path d="M9492 4958 c6 -18 28 -21 28 -4 0 9 -7 16 -16 16 -9 0 -14 -5 -12
-12z"/>
<path d="M7760 4916 c0 -11 39 -50 45 -44 3 2 -6 15 -20 28 -14 13 -25 20 -25
16z"/>
<path d="M9400 4860 c0 -5 5 -10 10 -10 6 0 10 5 10 10 0 6 -4 10 -10 10 -5 0
-10 -4 -10 -10z"/>
<path d="M6230 4754 c0 -5 12 -18 27 -28 16 -12 24 -14 21 -6 -5 16 -48 46
-48 34z"/>
<path d="M6169 4692 c-52 -58 -62 -75 -16 -29 27 27 47 51 45 53 -3 2 -15 -9
-29 -24z"/>
<path d="M6214 4673 c-15 -23 -361 -419 -516 -591 -65 -72 -118 -133 -118
-137 0 -3 12 2 28 13 15 11 59 31 97 45 39 14 78 28 87 32 10 4 28 23 40 43
12 21 37 56 56 80 19 23 32 42 28 42 -13 0 35 80 54 90 15 8 19 17 14 35 -8
34 42 101 209 282 31 34 57 67 57 73 0 16 -24 12 -36 -7z"/>
<path d="M6660 4636 c0 -3 26 -23 58 -45 31 -22 80 -67 107 -98 28 -32 77 -84
110 -115 63 -59 131 -171 155 -254 16 -53 1 -101 -39 -129 -16 -11 -63 -46
-104 -77 -42 -32 -86 -63 -99 -68 -20 -9 -99 -61 -134 -87 -45 -34 -73 -34
-39 1 27 27 45 83 45 140 0 200 -198 367 -435 366 l-70 0 123 -66 c67 -36 129
-75 136 -87 21 -33 24 -106 5 -121 -9 -6 -26 -30 -38 -54 -12 -23 -25 -42 -30
-42 -5 0 -20 -17 -34 -37 -63 -92 -175 -185 -185 -154 -2 6 -21 14 -43 17 -54
9 -66 26 -37 55 l23 22 -25 -8 c-14 -4 -62 -9 -108 -10 -80 -4 -83 -5 -135
-47 -28 -24 -67 -54 -86 -67 -49 -35 -219 -121 -237 -121 -27 0 -84 31 -84 46
0 8 -4 14 -9 14 -8 0 -18 24 -27 64 -3 11 -9 25 -14 31 -5 7 -7 15 -4 18 3 3
3 11 -1 17 -4 6 -22 -9 -45 -38 -33 -41 -47 -50 -90 -60 -91 -21 -96 -19 -110
41 -7 28 -23 75 -35 102 -12 28 -25 61 -29 75 -12 42 -69 149 -82 154 -6 2
-21 -6 -33 -18 l-21 -22 24 -48 c13 -27 27 -60 30 -75 6 -22 24 -64 66 -152
15 -30 23 -129 11 -129 -6 0 -14 7 -17 15 -5 11 -10 12 -25 2 -10 -6 -19 -17
-19 -23 0 -7 -7 -14 -15 -18 -14 -5 -44 40 -127 193 -16 28 -32 51 -37 51 -35
0 -6 -147 41 -213 13 -18 22 -33 20 -35 -1 -1 6 -23 18 -48 11 -26 20 -62 20
-80 0 -44 -36 -100 -75 -116 -61 -25 -66 -48 -9 -48 25 0 33 5 38 23 7 26 36
61 148 177 74 78 77 79 28 20 -30 -36 -69 -81 -88 -102 -19 -20 -31 -41 -28
-47 4 -5 36 24 73 67 133 154 156 177 184 189 16 7 29 9 29 5 0 -4 -56 -71
-125 -149 -82 -94 -122 -148 -119 -158 8 -19 11 -19 39 3 21 17 32 18 87 9 35
-5 68 -13 73 -17 8 -7 37 -7 111 -1 6 1 16 13 22 27 7 14 8 23 2 19 -5 -3 -10
2 -10 11 0 16 -1 16 -19 0 -16 -15 -22 -15 -40 -4 -12 7 -21 16 -21 20 0 5 -6
8 -14 8 -20 0 -30 35 -17 58 14 26 38 34 62 21 11 -6 25 -8 32 -5 7 2 2 8 -10
11 -13 4 -24 12 -24 19 -3 26 4 50 17 63 11 12 18 9 45 -19 17 -18 37 -45 45
-60 8 -16 23 -28 33 -28 10 0 24 -7 31 -15 10 -13 41 -14 199 -10 113 3 187 9
189 15 2 5 17 10 33 10 16 0 29 5 29 10 0 6 10 8 24 4 14 -3 29 0 38 9 10 10
20 12 29 6 23 -14 31 -10 24 11 -7 21 4 26 21 11 5 -4 24 -11 42 -14 31 -6 32
-5 21 14 -6 12 -7 25 -2 29 12 12 179 37 363 55 91 8 206 19 255 25 105 11
359 32 395 32 13 0 34 6 45 14 20 13 51 13 91 0 25 -8 158 25 212 53 l41 21
-16 31 c-11 23 -20 29 -35 25 -11 -2 -28 -1 -37 3 -9 5 -34 16 -55 25 -21 10
-57 32 -80 50 -23 18 -57 42 -77 54 -34 21 -77 74 -92 116 -11 28 69 232 116
296 22 30 45 58 51 62 8 5 7 8 -1 8 -6 0 -25 -13 -41 -30 -33 -32 -67 -32 -59
1 3 11 -6 28 -24 45 -23 22 -29 24 -29 11 0 -9 -4 -17 -10 -17 -5 0 -10 7 -10
16 0 24 -50 84 -70 84 -10 0 -25 11 -34 25 -29 45 -56 55 -104 43 -48 -12 -68
-5 -132 43 -37 28 -100 63 -100 55z m-1482 -1268 c20 -20 14 -26 -28 -30 -24
-2 -40 1 -40 7 0 16 22 35 40 35 9 0 21 -5 28 -12z"/>
<path d="M3858 4468 c-66 -63 -106 -100 -232 -212 -38 -33 -93 -85 -122 -113
-29 -29 -58 -53 -64 -53 -6 0 -15 -11 -20 -25 -5 -14 -15 -25 -21 -25 -6 0
-29 -18 -50 -39 l-40 -39 30 -7 c17 -4 39 -4 48 -1 10 3 25 1 33 -4 19 -12 13
-13 -79 -14 -50 -1 -76 -5 -78 -13 -4 -10 18 -13 88 -13 l93 0 86 89 c230 239
438 456 463 485 l28 31 -23 6 c-57 17 -74 10 -140 -53z m-341 -424 c-3 -3 -12
-4 -19 -1 -8 3 -5 6 6 6 11 1 17 -2 13 -5z m-120 -50 c-3 -3 -12 -4 -19 -1 -8
3 -5 6 6 6 11 1 17 -2 13 -5z m75 -6 c-8 -8 -17 -8 -34 0 -22 10 -21 11 12 11
26 1 31 -2 22 -11z"/>
<path d="M3757 4492 c-52 -42 -273 -238 -320 -283 -18 -19 -24 -30 -16 -35 16
-10 -18 -35 -37 -27 -8 3 -21 0 -29 -7 -13 -11 -13 -14 2 -26 16 -12 14 -13
-18 -14 -20 0 -42 -7 -49 -15 -10 -12 -10 -15 4 -15 9 0 16 -4 16 -10 0 -5
-15 -10 -33 -10 -50 0 -78 -35 -34 -43 14 -3 10 -5 -14 -6 -19 0 -44 -7 -55
-15 -19 -15 -19 -15 1 -30 19 -14 18 -15 -16 -14 -20 1 -41 -2 -48 -6 -21 -14
0 -26 45 -26 43 0 49 4 135 88 335 323 532 522 518 522 -9 0 -32 -13 -52 -28z"/>
<path d="M4113 4513 c-7 -2 -13 -11 -13 -18 0 -7 6 -16 13 -19 6 -3 3 -5 -8
-5 -41 2 -47 -1 -42 -21 4 -16 0 -20 -18 -20 -15 0 -71 -48 -184 -157 -300
-293 -368 -362 -363 -368 3 -3 44 -5 92 -5 95 0 103 4 160 75 16 20 49 58 72
84 24 26 72 81 108 121 36 41 85 97 111 124 114 128 142 166 125 172 -9 3 -16
15 -16 25 0 19 -12 23 -37 12z m-463 -574 c0 -5 -7 -9 -15 -9 -15 0 -20 12 -9
23 8 8 24 -1 24 -14z"/>
<path d="M4325 4510 l-40 -6 40 -5 c39 -4 52 -22 17 -25 -9 0 -28 -2 -42 -3
l-25 -2 25 -10 24 -10 -29 -18 c-25 -15 -32 -16 -40 -4 -11 15 -5 21 -220
-203 -38 -39 -94 -98 -124 -131 -107 -116 -162 -172 -174 -176 -27 -10 3 -16
91 -18 102 -3 107 0 164 78 13 17 88 112 168 210 80 98 171 213 202 256 65 86
65 85 -37 67z m-185 -234 c0 -3 -4 -8 -10 -11 -5 -3 -10 -1 -10 4 0 6 5 11 10
11 6 0 10 -2 10 -4z m-123 -152 c-3 -3 -12 -4 -19 -1 -8 3 -5 6 6 6 11 1 17
-2 13 -5z m-87 -104 c0 -5 -4 -10 -10 -10 -5 0 -10 5 -10 10 0 6 5 10 10 10 6
0 10 -4 10 -10z"/>
<path d="M3530 4482 c-14 -9 -47 -38 -75 -63 -100 -93 -312 -272 -403 -341
-52 -39 -90 -74 -85 -79 4 -4 19 -10 33 -14 32 -7 52 7 237 175 82 74 180 163
218 196 39 34 87 76 108 95 20 18 37 36 37 41 0 14 -44 8 -70 -10z"/>
<path d="M4543 4491 c-28 -4 -53 -9 -55 -11 -2 -3 -12 -16 -23 -29 -17 -21
-18 -24 -3 -18 10 3 20 2 23 -3 4 -6 -3 -10 -14 -10 -27 0 -51 -10 -51 -22 0
-5 5 -6 10 -3 6 3 10 1 10 -4 0 -6 -9 -11 -20 -11 -11 0 -28 -8 -37 -19 -50
-52 -142 -157 -215 -243 -31 -36 -65 -75 -75 -86 -38 -40 -108 -124 -111 -133
-2 -5 39 -9 92 -9 95 0 97 1 114 28 9 15 43 61 74 102 31 41 83 111 115 155
32 44 84 115 116 157 31 43 57 80 57 84 0 3 14 24 31 45 17 21 27 38 22 38 -4
-1 -31 -5 -60 -8z m-168 -191 c3 -5 1 -10 -4 -10 -6 0 -11 5 -11 10 0 6 2 10
4 10 3 0 8 -4 11 -10z m-35 -71 c0 -6 -4 -7 -10 -4 -5 3 -10 11 -10 16 0 6 5
7 10 4 6 -3 10 -11 10 -16z m-33 -35 c-3 -3 -12 -4 -19 -1 -8 3 -5 6 6 6 11 1
17 -2 13 -5z m-113 -143 c7 -11 -14 -20 -31 -13 -7 2 -10 8 -7 13 7 12 31 12
38 0z m-67 -127 c-3 -3 -12 -4 -19 -1 -8 3 -5 6 6 6 11 1 17 -2 13 -5z"/>
<path d="M9980 4485 c0 -8 4 -15 10 -15 5 0 7 7 4 15 -4 8 -8 15 -10 15 -2 0
-4 -7 -4 -15z"/>
<path d="M9932 4475 c-11 -13 -10 -15 7 -15 14 0 19 5 15 15 -7 18 -6 18 -22
0z"/>
<path d="M4775 4450 c3 -5 8 -10 11 -10 2 0 4 5 4 10 0 6 -5 10 -11 10 -5 0
-7 -4 -4 -10z"/>
<path d="M9943 4433 c-18 -7 -16 -33 2 -33 8 0 15 9 15 20 0 11 -1 20 -2 19
-2 0 -9 -3 -15 -6z"/>
<path d="M9986 4425 c4 -8 8 -15 10 -15 2 0 4 7 4 15 0 8 -4 15 -10 15 -5 0
-7 -7 -4 -15z"/>
<path d="M4765 4410 c-3 -5 -1 -10 4 -10 6 0 11 5 11 10 0 6 -2 10 -4 10 -3 0
-8 -4 -11 -10z"/>
<path d="M9882 4405 c-11 -12 -10 -15 3 -15 8 0 15 7 15 15 0 18 -2 18 -18 0z"/>
<path d="M4602 4363 c-17 -19 -32 -39 -32 -45 0 -15 152 -6 158 10 2 8 -2 10
-13 6 -9 -4 -25 2 -39 15 -16 15 -29 19 -42 14 -17 -6 -17 -5 -5 10 27 33 6
25 -27 -10z"/>
<path d="M9992 4370 c0 -14 2 -19 5 -12 2 6 2 18 0 25 -3 6 -5 1 -5 -13z"/>
<path d="M9940 4370 c-13 -8 -13 -10 2 -10 9 0 19 -6 21 -12 3 -7 6 -3 6 10 1
24 -6 27 -29 12z"/>
<path d="M9878 4333 c6 -2 18 -2 25 0 6 3 1 5 -13 5 -14 0 -19 -2 -12 -5z"/>
<path d="M9953 4313 c-7 -2 -13 -12 -13 -21 0 -14 2 -14 9 -3 7 11 9 11 14 0
3 -8 6 -4 6 9 1 12 0 22 -1 21 -2 0 -9 -3 -15 -6z"/>
<path d="M5784 4297 c-12 -6 -40 -27 -64 -44 -49 -37 -77 -41 -106 -15 -11 10
-25 17 -31 15 -7 -3 -21 1 -33 7 -17 9 -26 7 -51 -10 -22 -16 -33 -19 -43 -11
-7 6 -16 8 -19 4 -4 -3 -7 1 -7 10 0 25 -20 21 -55 -11 -47 -45 -102 -75 -108
-60 -2 7 -8 10 -12 6 -11 -11 12 -112 43 -183 19 -46 26 -82 30 -158 3 -53 8
-100 12 -102 4 -3 52 48 106 112 201 237 298 349 341 395 23 26 43 50 43 53 0
9 -24 5 -46 -8z"/>
<path d="M9880 4288 c0 -10 7 -18 15 -18 8 0 15 8 15 18 0 10 -7 19 -15 19 -8
0 -15 -9 -15 -19z"/>
<path d="M4650 4232 l-45 -69 -60 -3 c-33 -1 -70 -2 -82 -2 -13 0 -23 -4 -23
-8 0 -5 -9 -12 -20 -15 -11 -3 -23 -17 -26 -30 -3 -13 -14 -25 -25 -28 -10 -3
-23 -17 -29 -31 -5 -14 -14 -26 -19 -26 -5 0 -12 -8 -15 -17 -3 -10 -24 -38
-46 -62 -22 -24 -38 -46 -36 -49 3 -2 52 -6 109 -9 l104 -6 46 67 c26 37 47
69 47 71 0 2 24 39 53 82 78 116 118 184 115 195 -2 5 -24 -22 -48 -60z m-105
-141 c8 -14 -28 -31 -44 -21 -8 4 -10 13 -7 19 9 13 43 15 51 2z m-100 -121
c-3 -5 -10 -10 -16 -10 -5 0 -9 5 -9 10 0 6 7 10 16 10 8 0 12 -4 9 -10z m-17
-57 c-10 -2 -28 -2 -40 0 -13 2 -5 4 17 4 22 1 32 -1 23 -4z"/>
<path d="M9827 4284 c-13 -13 -7 -24 14 -24 11 0 19 5 17 12 -5 14 -22 21 -31
12z"/>
<path d="M9731 4254 c0 -11 3 -14 6 -6 3 7 2 16 -1 19 -3 4 -6 -2 -5 -13z"/>
<path d="M9943 4245 c3 -28 37 -33 37 -6 0 25 -20 28 -21 4 0 -16 -2 -15 -10
2 -9 20 -9 20 -6 0z"/>
<path d="M9884 4234 c3 -9 6 -18 6 -20 0 -2 7 -4 15 -4 8 0 15 9 15 20 0 14
-7 20 -21 20 -15 0 -19 -4 -15 -16z"/>
<path d="M9831 4218 c0 -22 1 -22 8 -3 l8 20 5 -20 c5 -18 6 -18 7 3 1 13 -5
22 -14 22 -9 0 -15 -9 -14 -22z"/>
<path d="M8855 4220 c-27 -7 -28 -8 -5 -8 14 0 34 3 45 8 25 11 2 11 -40 0z"/>
<path d="M9792 4210 c0 -14 2 -19 5 -12 2 6 2 18 0 25 -3 6 -5 1 -5 -13z"/>
<path d="M4981 4206 c-9 -11 -8 -15 5 -20 24 -9 54 -7 54 4 0 6 -7 10 -15 10
-8 0 -15 5 -15 10 0 14 -16 12 -29 -4z"/>
<path d="M8790 4210 c0 -5 5 -10 11 -10 5 0 7 5 4 10 -3 6 -8 10 -11 10 -2 0
-4 -4 -4 -10z"/>
<path d="M9771 4204 c0 -11 3 -14 6 -6 3 7 2 16 -1 19 -3 4 -6 -2 -5 -13z"/>
<path d="M9950 4180 c0 -11 7 -20 15 -20 8 0 15 9 15 20 0 11 -7 20 -15 20 -8
0 -15 -9 -15 -20z"/>
<path d="M9890 4168 c0 -19 2 -20 10 -8 7 11 10 11 10 2 0 -7 4 -11 10 -7 13
8 1 35 -16 35 -8 0 -14 -10 -14 -22z"/>
<path d="M9838 4153 c6 -2 18 -2 25 0 6 3 1 5 -13 5 -14 0 -19 -2 -12 -5z"/>
<path d="M9452 4091 c2 -30 9 -56 14 -58 7 -2 8 15 4 47 -9 69 -23 77 -18 11z"/>
<path d="M9950 4121 c0 -14 6 -19 20 -18 12 1 20 8 20 19 0 11 -7 18 -20 18
-13 0 -20 -7 -20 -19z"/>
<path d="M9900 4100 c0 -5 7 -7 15 -4 8 4 15 8 15 10 0 2 -7 4 -15 4 -8 0 -15
-4 -15 -10z"/>
<path d="M9848 4093 c7 -3 16 -2 19 1 4 3 -2 6 -13 5 -11 0 -14 -3 -6 -6z"/>
<path d="M9961 4058 c1 -20 2 -20 6 -4 4 15 7 16 14 5 7 -11 9 -11 9 4 0 9 -7
17 -15 17 -9 0 -15 -9 -14 -22z"/>
<path d="M9620 4060 c-9 -6 -10 -10 -3 -10 6 0 15 5 18 10 8 12 4 12 -15 0z"/>
<path d="M9900 4050 c0 -13 5 -18 15 -14 8 4 15 12 15 20 0 8 -7 14 -15 14 -8
0 -15 -9 -15 -20z"/>
<path d="M9200 4021 c-6 -12 -7 -21 -1 -21 10 0 24 30 17 37 -2 3 -9 -5 -16
-16z"/>
<path d="M9848 4033 c6 -2 18 -2 25 0 6 3 1 5 -13 5 -14 0 -19 -2 -12 -5z"/>
<path d="M9788 4023 c6 -2 18 -2 25 0 6 3 1 5 -13 5 -14 0 -19 -2 -12 -5z"/>
<path d="M9973 4023 c-16 -6 -17 -33 -2 -33 5 0 8 4 4 9 -3 5 3 11 12 13 10 2
14 6 8 9 -5 4 -16 4 -22 2z"/>
<path d="M2270 3990 c-9 -17 -7 -20 15 -26 28 -7 55 0 55 16 0 5 -7 10 -15 10
-8 0 -15 5 -15 10 0 18 -29 11 -40 -10z"/>
<path d="M5096 4002 c-2 -4 1 -12 8 -18 9 -8 15 -7 24 3 7 7 11 13 10 14 -22
6 -39 6 -42 1z"/>
<path d="M9853 4004 c-16 -7 -5 -34 13 -34 8 0 14 9 14 20 0 20 -5 23 -27 14z"/>
<path d="M9900 3995 c0 -8 5 -15 11 -15 5 0 8 4 4 9 -3 5 3 12 12 14 14 4 13
5 -4 6 -14 1 -23 -5 -23 -14z"/>
<path d="M9810 3992 c0 -7 -4 -10 -10 -7 -5 3 -10 -1 -10 -9 0 -9 6 -16 14
-16 20 0 27 13 15 30 -6 11 -9 12 -9 2z"/>
<path d="M9731 3973 c-1 -14 5 -23 14 -23 9 0 15 9 14 23 0 21 -1 21 -8 2 l-8
-20 -5 20 c-5 18 -6 18 -7 -2z"/>
<path d="M2230 3970 c0 -5 5 -10 11 -10 5 0 7 5 4 10 -3 6 -8 10 -11 10 -2 0
-4 -4 -4 -10z"/>
<path d="M9177 3973 c-11 -10 -8 -43 3 -43 6 0 10 4 10 9 0 5 3 16 6 25 6 16
-7 22 -19 9z"/>
<path d="M9520 3968 c0 -9 7 -19 16 -22 15 -6 15 -4 3 11 -7 10 -15 20 -16 22
-2 2 -3 -3 -3 -11z"/>
<path d="M9691 3964 c0 -11 3 -14 6 -6 3 7 2 16 -1 19 -3 4 -6 -2 -5 -13z"/>
<path d="M9671 3954 c0 -11 3 -14 6 -6 3 7 2 16 -1 19 -3 4 -6 -2 -5 -13z"/>
<path d="M9990 3956 c0 -8 -6 -17 -12 -19 -8 -3 -6 -6 5 -6 11 -1 17 6 17 19
0 11 -2 20 -5 20 -3 0 -5 -6 -5 -14z"/>
<path d="M5096 3947 c3 -10 9 -15 12 -12 3 3 0 11 -7 18 -10 9 -11 8 -5 -6z"/>
<path d="M9910 3938 c0 -11 7 -18 19 -18 14 0 18 5 14 18 -2 10 -11 19 -19 19
-8 0 -14 -9 -14 -19z"/>
<path d="M2237 3930 c5 -17 0 -20 -28 -21 -32 0 -32 -1 -10 -10 16 -6 28 -6
36 1 9 7 15 7 19 1 4 -5 2 -12 -4 -16 -17 -11 -11 -51 11 -71 27 -24 142 -25
166 -2 13 14 8 17 -47 26 -36 7 -70 8 -84 2 -12 -4 -28 -5 -35 -1 -21 13 20
47 52 42 4 0 7 4 7 9 0 6 8 10 18 10 10 0 26 6 37 13 17 13 16 14 -14 20 -26
6 -36 3 -50 -14 l-17 -21 -31 26 c-28 24 -31 24 -26 6z"/>
<path d="M9850 3930 c0 -13 7 -20 20 -20 21 0 25 8 12 25 -13 18 -32 15 -32
-5z"/>
<path d="M2435 3930 c3 -5 8 -10 11 -10 2 0 4 5 4 10 0 6 -5 10 -11 10 -5 0
-7 -4 -4 -10z"/>
<path d="M9799 3938 c-8 -27 -5 -36 12 -35 22 2 26 37 4 37 -8 0 -15 -1 -16
-2z"/>
<path d="M9743 3915 c-3 -9 -3 -19 1 -22 3 -4 6 0 6 8 0 11 2 11 10 -1 8 -12
10 -11 10 8 0 25 -18 30 -27 7z"/>
<path d="M9157 3887 c-6 -40 2 -87 15 -87 9 0 4 108 -6 117 -2 2 -6 -11 -9
-30z"/>
<path d="M9550 3902 c0 -14 6 -22 16 -22 14 0 15 3 3 18 -7 9 -15 19 -16 21
-2 2 -3 -5 -3 -17z"/>
<path d="M9684 3908 c-4 -6 -3 -8 4 -4 6 3 13 -2 15 -11 4 -14 5 -13 6 5 1 23
-13 30 -25 10z"/>
<path d="M9270 3901 c0 -6 4 -13 10 -16 6 -3 7 1 4 9 -7 18 -14 21 -14 7z"/>
<path d="M9970 3885 c0 -16 5 -23 13 -19 18 6 19 44 1 44 -8 0 -14 -10 -14
-25z"/>
<path d="M9915 3890 c-3 -5 0 -10 7 -10 9 0 9 -3 -2 -10 -12 -8 -11 -10 6 -10
26 0 34 8 27 26 -6 16 -29 19 -38 4z"/>
<path d="M9863 3884 c-17 -8 -4 -34 17 -34 13 0 17 5 13 20 -5 20 -9 22 -30
14z"/>
<path d="M2165 3870 c-8 -13 20 -24 36 -15 8 6 7 10 -2 16 -18 11 -26 11 -34
-1z"/>
<path d="M9820 3863 c0 -15 -2 -16 -10 -3 -8 13 -10 12 -10 -2 0 -11 8 -18 19
-18 14 0 18 5 14 20 -7 25 -13 26 -13 3z"/>
<path d="M9274 3815 c2 -33 5 -74 5 -92 1 -25 5 -31 16 -27 10 4 13 13 10 25
-4 11 -2 19 4 19 6 0 11 7 11 16 0 8 -4 13 -9 10 -5 -3 -11 4 -15 17 -3 12 -1
24 4 25 15 6 12 21 -10 45 l-21 22 5 -60z"/>
<path d="M9750 3860 c-13 -9 -13 -10 0 -10 13 0 13 -1 0 -10 -13 -8 -12 -10 3
-10 10 0 17 8 17 20 0 23 0 23 -20 10z"/>
<path d="M5120 3850 c0 -5 5 -10 10 -10 6 0 10 -9 10 -19 0 -23 16 -36 25 -21
4 6 11 8 16 5 14 -9 29 4 22 20 -3 8 -13 15 -22 15 -14 0 -14 2 -1 10 11 7 5
10 -22 10 -21 0 -38 -4 -38 -10z"/>
<path d="M9540 3850 c19 -13 30 -13 30 0 0 6 -10 10 -22 10 -19 0 -20 -2 -8
-10z"/>
<path d="M9980 3831 c0 -11 5 -23 10 -26 6 -4 10 5 10 19 0 14 -4 26 -10 26
-5 0 -10 -9 -10 -19z"/>
<path d="M9927 3833 c-14 -13 -6 -33 13 -33 13 0 20 7 20 20 0 19 -20 27 -33
13z"/>
<path d="M9860 3809 c0 -13 7 -19 21 -19 14 0 19 5 17 17 -4 24 -38 26 -38 2z"/>
<path d="M9815 3812 c-18 -13 -15 -32 5 -32 13 0 20 7 20 20 0 21 -8 25 -25
12z"/>
<path d="M9772 3790 c0 -14 2 -19 5 -12 2 6 2 18 0 25 -3 6 -5 1 -5 -13z"/>
<path d="M9751 3784 c0 -11 3 -14 6 -6 3 7 2 16 -1 19 -3 4 -6 -2 -5 -13z"/>
<path d="M5590 3779 c0 -6 9 -23 19 -37 20 -29 21 -31 21 -62 0 -11 5 -20 10
-20 6 0 10 9 10 19 0 11 4 22 9 25 10 7 -9 56 -21 56 -5 0 -8 7 -8 15 0 8 -9
15 -20 15 -11 0 -20 -5 -20 -11z"/>
<path d="M9987 3783 c-3 -5 -1 -17 4 -28 7 -17 8 -17 8 8 1 27 -4 34 -12 20z"/>
<path d="M9933 3774 c-18 -8 -4 -34 18 -34 21 0 22 1 13 24 -6 17 -11 18 -31
10z"/>
<path d="M9166 3755 c4 -8 10 -12 15 -9 14 8 10 24 -6 24 -9 0 -12 -6 -9 -15z"/>
<path d="M9870 3750 c0 -14 7 -20 21 -20 15 0 19 4 15 16 -3 9 -6 18 -6 20 0
2 -7 4 -15 4 -8 0 -15 -9 -15 -20z"/>
<path d="M9810 3743 c0 -14 27 -29 36 -21 2 3 2 12 -1 20 -7 18 -35 19 -35 1z"/>
<path d="M9990 3710 c0 -11 -4 -20 -10 -20 -5 0 -9 6 -7 12 1 7 -8 14 -20 16
-19 3 -23 -1 -23 -22 0 -24 11 -30 46 -25 4 0 10 -4 14 -11 4 -6 7 7 8 30 1
22 0 40 -3 40 -3 0 -5 -9 -5 -20z"/>
<path d="M9885 3700 c3 -5 10 -10 16 -10 5 0 9 5 9 10 0 6 -7 10 -16 10 -8 0
-12 -4 -9 -10z"/>
<path d="M5609 3618 c-12 -23 -12 -23 10 -4 23 21 26 26 11 26 -5 0 -15 -10
-21 -22z"/>
<path d="M8928 3603 c7 -3 16 -2 19 1 4 3 -2 6 -13 5 -11 0 -14 -3 -6 -6z"/>
<path d="M9675 3569 c-5 -14 -14 -19 -33 -18 -54 4 -82 -1 -82 -15 0 -7 -7
-19 -16 -27 -13 -10 -19 -10 -36 0 -17 11 -22 10 -29 -1 -5 -7 -9 -16 -9 -20
0 -5 -8 -8 -18 -8 -44 0 -119 -57 -109 -82 3 -10 209 -320 222 -336 2 -2 47 8
100 22 106 29 226 77 293 119 l42 27 0 79 c0 115 -6 138 -38 139 -52 2 -62 5
-62 23 0 20 -20 30 -49 22 -25 -6 -61 21 -61 46 -1 14 -2 14 -13 1 -14 -18
-47 -15 -47 4 0 13 -31 46 -43 46 -3 0 -9 -9 -12 -21z"/>
<path d="M8955 3571 c-3 -5 -1 -12 5 -16 5 -3 10 1 10 9 0 18 -6 21 -15 7z"/>
<path d="M4710 3486 c-6 -20 -17 -39 -24 -43 -7 -5 -18 -23 -25 -41 -19 -47
-3 -62 66 -62 40 0 54 3 51 13 -3 6 -13 44 -23 82 -23 88 -30 96 -45 51z"/>
<path d="M3525 3500 c3 -5 12 -10 20 -10 8 0 17 5 20 10 4 6 -5 10 -20 10 -15
0 -24 -4 -20 -10z"/>
<path d="M3205 3470 c-3 -5 3 -10 14 -10 12 0 21 5 21 10 0 6 -6 10 -14 10 -8
0 -18 -4 -21 -10z"/>
<path d="M3271 3457 c-13 -21 -12 -21 5 -5 10 10 16 20 13 22 -3 3 -11 -5 -18
-17z"/>
<path d="M6270 3451 c0 -5 7 -12 16 -15 14 -5 15 -4 4 9 -14 17 -20 19 -20 6z"/>
<path d="M9069 3432 c-19 -17 -29 -34 -25 -40 8 -14 123 -82 137 -82 18 0 69
60 69 81 0 52 -51 79 -80 44 -17 -21 -37 -19 -43 5 -7 27 -21 25 -58 -8z"/>
<path d="M3805 3431 l-30 -16 29 -3 c26 -3 45 10 46 31 0 10 -10 7 -45 -12z"/>
<path d="M3311 3403 c-18 -34 -17 -67 2 -71 12 -2 17 3 17 17 0 12 3 20 8 20
37 -6 41 9 7 34 -23 17 -25 17 -34 0z"/>
<path d="M7826 3391 c-3 -4 -1 -13 5 -21 5 -8 9 -11 9 -6 0 5 7 3 15 -4 8 -7
13 -16 10 -20 -7 -11 44 -50 64 -50 9 0 35 9 59 20 46 21 55 52 17 58 -11 2
-29 7 -40 12 -25 12 -134 20 -139 11z"/>
<path d="M3400 3370 c0 -5 5 -10 11 -10 5 0 7 5 4 10 -3 6 -8 10 -11 10 -2 0
-4 -4 -4 -10z"/>
<path d="M3455 3369 c-4 -5 1 -9 9 -9 9 0 19 0 23 -1 4 0 9 3 10 8 4 12 -35
14 -42 2z"/>
<path d="M5364 3316 c-8 -22 -2 -27 16 -16 12 7 12 12 3 21 -10 10 -14 9 -19
-5z"/>
<path d="M5440 3314 c0 -8 5 -12 10 -9 6 3 10 10 10 16 0 5 -4 9 -10 9 -5 0
-10 -7 -10 -16z"/>
<path d="M3380 3310 c0 -5 5 -10 10 -10 6 0 10 5 10 10 0 6 -4 10 -10 10 -5 0
-10 -4 -10 -10z"/>
<path d="M3490 3309 c0 -5 -5 -7 -12 -3 -7 4 -8 3 -4 -5 6 -9 11 -9 22 0 17
14 18 19 4 19 -5 0 -10 -5 -10 -11z"/>
<path d="M5400 3310 c0 -5 4 -10 9 -10 6 0 13 5 16 10 3 6 -1 10 -9 10 -9 0
-16 -4 -16 -10z"/>
<path d="M1440 3149 c0 -11 4 -18 10 -14 5 3 7 12 3 20 -7 21 -13 19 -13 -6z"/>
<path d="M4850 3145 c-13 -14 -20 -25 -16 -25 4 0 19 11 34 25 15 14 22 25 16
25 -6 0 -21 -11 -34 -25z"/>
<path d="M2810 3109 c0 -5 5 -7 10 -4 6 3 10 8 10 11 0 2 -4 4 -10 4 -5 0 -10
-5 -10 -11z"/>
<path d="M7422 3113 c-1 -7 -8 -10 -16 -7 -8 3 -17 1 -21 -5 -3 -6 -15 -11
-26 -11 -10 0 -19 -4 -19 -10 0 -5 -6 -7 -14 -4 -15 6 -28 -19 -20 -39 3 -10
26 -14 79 -13 66 0 72 2 60 16 -7 8 -15 31 -18 50 -2 19 -5 30 -5 23z"/>
<path d="M1386 3082 c-3 -6 -1 -14 5 -17 15 -10 25 3 12 16 -7 7 -13 7 -17 1z"/>
<path d="M1345 3030 c-3 -5 -1 -10 4 -10 6 0 11 5 11 10 0 6 -2 10 -4 10 -3 0
-8 -4 -11 -10z"/>
<path d="M2810 3025 c0 -8 7 -11 20 -8 22 6 19 15 -5 19 -8 1 -15 -4 -15 -11z"/>
<path d="M7889 3012 c-24 -17 -24 -48 -1 -60 20 -11 212 -25 212 -16 0 7 -42
43 -52 44 -4 0 -24 10 -45 22 -43 26 -87 29 -114 10z"/>
<path d="M9960 3018 c-14 -6 -41 -18 -60 -27 -19 -8 -42 -16 -50 -17 -189 -23
-189 -23 -192 -58 -2 -23 -8 -31 -23 -31 -14 0 -21 -9 -26 -32 -5 -28 -4 -33
12 -33 11 0 19 -4 19 -10 0 -5 -5 -10 -10 -10 -6 0 -14 -10 -19 -22 -7 -18 -4
-26 13 -35 11 -7 29 -10 38 -7 9 3 26 -4 37 -15 10 -10 22 -17 25 -14 3 4 6
-3 6 -15 0 -15 5 -20 15 -16 9 4 15 1 15 -7 0 -10 3 -10 12 -1 7 7 22 12 34
12 22 0 51 -26 41 -37 -7 -7 36 -43 51 -43 6 0 12 -4 14 -9 2 -5 22 -12 46
-16 l42 -7 0 231 c0 127 -3 231 -7 230 -5 0 -19 -5 -33 -11z"/>
<path d="M8515 3009 c-10 -15 1 -22 35 -22 16 0 31 -6 34 -14 8 -19 26 -16 26
5 0 29 -80 56 -95 31z"/>
<path d="M2840 2980 c-9 -6 -10 -10 -3 -10 6 0 15 5 18 10 8 12 4 12 -15 0z"/>
<path d="M8627 2975 c6 -17 25 -15 31 3 2 7 -5 12 -17 12 -14 0 -19 -5 -14
-15z"/>
<path d="M1300 2950 c0 -5 5 -10 10 -10 6 0 10 5 10 10 0 6 -4 10 -10 10 -5 0
-10 -4 -10 -10z"/>
<path d="M6697 2909 c4 -13 8 -18 11 -10 2 7 -1 18 -6 23 -8 8 -9 4 -5 -13z"/>
<path d="M1265 2910 c-3 -5 -1 -10 4 -10 6 0 11 5 11 10 0 6 -2 10 -4 10 -3 0
-8 -4 -11 -10z"/>
<path d="M8131 2888 c-15 -16 -27 -19 -50 -15 -66 14 -40 -41 37 -75 23 -10
42 -23 42 -28 0 -6 0 -13 0 -16 -1 -9 72 -55 130 -81 30 -14 65 -30 78 -36 18
-9 25 -8 32 3 7 11 16 12 44 3 39 -12 49 -6 59 35 4 16 0 25 -11 30 -42 19
-80 48 -95 74 -16 28 -42 35 -102 29 -25 -2 -65 19 -65 34 0 14 -38 50 -62 58
-11 4 -25 -2 -37 -15z"/>
<path d="M1171 2860 c-35 -17 -70 -56 -71 -77 0 -14 60 -32 103 -31 20 0 32 8
42 28 8 15 11 30 8 34 -4 3 2 6 13 6 16 0 15 2 -6 13 -14 8 -24 18 -23 24 4
18 -31 20 -66 3z"/>
<path d="M7762 2850 c-7 -11 -8 -20 -3 -20 9 0 24 30 18 36 -1 2 -8 -6 -15
-16z"/>
<path d="M7990 2860 c0 -5 7 -7 15 -4 8 4 15 8 15 10 0 2 -7 4 -15 4 -8 0 -15
-4 -15 -10z"/>
<path d="M9545 2750 c-3 -5 3 -10 15 -10 12 0 18 5 15 10 -3 6 -10 10 -15 10
-5 0 -12 -4 -15 -10z"/>
<path d="M7918 2649 c-10 -17 -18 -39 -18 -50 0 -16 -4 -18 -17 -10 -22 11
-92 4 -110 -11 -14 -11 -17 -46 -7 -73 8 -19 43 -35 94 -42 19 -3 43 -14 53
-24 10 -10 24 -19 33 -19 8 0 17 -6 20 -14 3 -8 19 -18 35 -21 16 -4 50 -17
75 -31 25 -13 51 -24 58 -24 8 0 16 -6 19 -14 3 -8 15 -12 30 -9 33 6 26 38
-17 78 -18 17 -42 51 -55 78 -13 26 -26 45 -30 43 -4 -3 -13 11 -20 30 -7 18
-18 34 -25 34 -16 0 -42 29 -65 71 -23 43 -33 45 -53 8z"/>
<path d="M7671 2634 c0 -11 3 -14 6 -6 3 7 2 16 -1 19 -3 4 -6 -2 -5 -13z"/>
<path d="M8500 2577 c0 -8 6 -32 13 -53 9 -26 11 -49 5 -71 -12 -47 -37 -43
-71 10 -13 20 -25 27 -49 27 -31 0 -123 24 -215 57 -24 8 -47 12 -53 8 -17
-11 -11 -37 10 -42 11 -3 20 -14 20 -24 0 -10 10 -29 23 -42 12 -13 27 -32 33
-42 9 -17 16 -18 56 -9 40 9 47 8 57 -8 6 -10 22 -18 36 -18 13 0 45 -13 71
-30 35 -22 51 -27 65 -20 28 15 86 12 93 -5 3 -8 15 -15 26 -15 11 0 20 -4 20
-10 0 -5 16 -12 36 -16 27 -5 38 -2 48 11 10 13 20 16 41 11 15 -4 52 -1 82 5
42 10 59 10 74 1 23 -15 66 -16 74 -2 3 6 14 10 24 10 24 0 43 23 35 43 -4 12
-10 14 -23 5 -14 -8 -24 -4 -51 20 -31 29 -33 33 -21 59 11 24 10 29 -6 40
-10 8 -29 11 -44 8 -19 -4 -28 -1 -32 9 -5 12 -21 16 -62 16 -30 0 -55 5 -55
10 0 6 -9 10 -19 10 -11 0 -33 11 -49 25 -34 28 -65 34 -55 10 3 -9 23 -34 44
-56 37 -38 53 -89 29 -89 -5 0 -10 -4 -10 -10 0 -5 9 -10 20 -10 29 0 24 -23
-7 -37 -15 -7 -31 -13 -36 -13 -18 0 -42 34 -39 57 2 16 -2 23 -12 23 -10 0
-16 9 -16 24 0 34 -14 66 -41 97 -29 32 -69 47 -69 26z m64 -133 c5 -14 4 -15
-9 -4 -17 14 -19 20 -6 20 5 0 12 -7 15 -16z m-40 -80 c9 -22 8 -24 -9 -24 -8
0 -15 9 -15 20 0 24 15 27 24 4z"/>
<path d="M7680 2534 c0 -24 58 -100 68 -89 7 7 -41 84 -55 89 -7 3 -13 3 -13
0z"/>
<path d="M1017 2506 c-22 -17 -97 -116 -97 -128 0 -4 -9 -27 -19 -51 -10 -23
-22 -49 -25 -57 -3 -8 -14 -27 -24 -41 -9 -15 -26 -41 -37 -58 -10 -17 -23
-31 -27 -31 -4 0 -8 -6 -8 -13 0 -16 -51 -47 -77 -47 -24 1 -65 35 -61 52 3
13 -43 82 -70 105 -9 7 -23 8 -43 3 -16 -5 -29 -6 -30 -2 -4 25 -6 39 -7 57
-2 17 -4 18 -13 5 -9 -12 -10 -11 -6 8 4 18 1 22 -18 22 -25 0 -39 -13 -64
-61 -21 -38 -35 -42 -39 -11 -3 18 -8 23 -23 19 -12 -3 -22 0 -26 9 -3 8 -13
14 -23 14 -21 0 -102 78 -95 91 3 4 1 10 -5 14 -6 4 -8 10 -5 14 2 5 -2 16 -9
26 -9 13 -15 15 -20 7 -4 -7 -2 -12 3 -12 6 0 1 -11 -11 -25 -25 -29 -53 -32
-63 -7 -3 9 -6 18 -5 20 3 11 -40 41 -53 36 -15 -6 -17 -107 -17 -1235 l0
-1229 554 0 555 0 41 68 c41 69 45 86 34 140 -4 20 -11 29 -20 25 -9 -3 -12
-13 -8 -30 5 -19 3 -24 -6 -21 -15 5 -39 108 -33 142 5 32 -11 48 -50 51 -28
3 -36 -1 -40 -16 -6 -23 -52 -26 -61 -3 -3 8 -11 12 -17 9 -6 -4 -13 2 -16 13
-2 11 -16 25 -29 31 -13 6 -24 15 -24 21 0 5 -6 10 -14 10 -8 0 -18 9 -21 20
-8 26 -25 26 -32 0 -3 -11 -13 -20 -22 -20 -10 0 -18 -7 -18 -15 0 -8 6 -15
14 -15 7 0 13 -4 13 -10 0 -18 -45 -10 -63 11 -27 31 -51 79 -66 128 -7 25
-25 54 -39 65 -51 41 -126 42 -142 2 -8 -20 -9 -19 -9 5 -1 36 21 78 64 119
20 19 55 54 78 76 23 23 53 45 67 49 13 4 30 13 36 19 14 13 105 94 116 104
27 24 108 119 108 126 0 5 21 33 46 62 39 46 51 54 81 54 60 0 100 27 138 92
19 32 35 63 35 69 0 5 5 9 10 9 6 0 10 4 10 9 0 5 19 42 43 83 24 40 46 84 50
98 10 38 121 202 154 226 47 33 120 57 158 50 37 -7 123 21 95 32 -24 9 -70
59 -70 76 0 8 -9 20 -20 26 -11 6 -20 17 -20 24 0 7 -12 23 -26 37 -15 13 -33
39 -40 57 -8 17 -18 32 -23 32 -5 0 -12 12 -15 26 -5 17 -12 24 -21 20 -10 -4
-15 1 -15 14 0 11 -4 20 -10 20 -5 0 -10 6 -10 13 0 8 -6 27 -14 43 -8 16 -17
43 -19 59 -6 46 -42 47 -61 1 -8 -20 -20 -36 -25 -36 -13 0 -51 -37 -50 -48 4
-21 -3 -23 -22 -7 -20 19 -20 18 -44 -10 -13 -17 -24 -35 -25 -42 0 -6 -5 -15
-12 -19 -16 -10 -4 73 16 111 9 17 16 38 16 48 0 9 5 17 10 17 6 0 10 13 10
30 l0 30 -40 -28 c-21 -15 -39 -33 -40 -39 0 -7 -4 -13 -10 -13 -5 0 -10 -7
-10 -15 0 -8 -4 -15 -10 -15 -5 0 -10 7 -10 15 0 9 -7 18 -15 21 -8 4 -13 10
-10 14 11 19 -23 30 -63 21 -23 -5 -43 -6 -46 -4 -7 7 14 45 32 59 8 6 15 26
16 45 0 19 6 37 11 41 6 4 -3 8 -20 8 -16 -1 -38 -7 -48 -14z m133 -225 c0 -5
-7 -11 -15 -15 -15 -5 -20 5 -8 17 9 10 23 9 23 -2z m-796 -86 c2 -7 -4 -21
-14 -30 -19 -17 -20 -16 -30 10 -5 14 -8 30 -5 35 7 12 43 1 49 -15z m850
-668 c-9 -5 -18 -6 -21 -3 -4 3 -1 6 5 6 7 0 12 8 12 18 0 14 2 15 10 2 6 -10
4 -17 -6 -23z m-29 -37 c-3 -5 -11 -10 -16 -10 -6 0 -7 5 -4 10 3 6 11 10 16
10 6 0 7 -4 4 -10z m-339 -429 c8 6 19 9 25 7 17 -6 -59 -88 -80 -87 -14 0
-14 1 -1 7 17 8 19 30 6 51 -10 16 14 35 28 21 6 -6 14 -5 22 1z m-340 -656
c-1 -37 -5 -55 -13 -55 -15 0 -17 29 -3 64 5 14 5 28 0 31 -10 6 -26 -42 -35
-108 -4 -28 -10 -45 -16 -41 -6 3 -8 18 -4 32 6 26 6 26 -14 8 -19 -17 -21
-17 -27 -2 -4 11 -14 15 -28 12 -12 -3 -9 0 7 6 15 7 27 19 27 27 1 14 3 13
14 -1 16 -21 26 -13 26 20 0 30 26 62 50 62 13 0 16 -10 16 -55z m44 -31 c0
-14 -4 -23 -10 -19 -5 3 -10 15 -10 26 0 10 5 19 10 19 6 0 10 -12 10 -26z
m250 -14 c0 -5 -4 -10 -10 -10 -5 0 -10 5 -10 10 0 6 5 10 10 10 6 0 10 -4 10
-10z m-210 -35 c0 -8 -4 -15 -10 -15 -5 0 -10 7 -10 15 0 8 5 15 10 15 6 0 10
-7 10 -15z m530 -55 c0 -5 -5 -10 -11 -10 -5 0 -7 5 -4 10 3 6 8 10 11 10 2 0
4 -4 4 -10z m-631 -74 c-9 -8 -10 -7 -5 7 3 10 7 28 7 40 2 16 3 14 6 -7 3
-16 -1 -34 -8 -40z m631 44 c0 -5 -4 -10 -10 -10 -5 0 -10 5 -10 10 0 6 5 10
10 10 6 0 10 -4 10 -10z m-703 -22 c-3 -8 -6 -5 -6 6 -1 11 2 17 5 13 3 -3 4
-12 1 -19z m36 -13 c-3 -9 -8 -14 -10 -11 -3 3 -2 9 2 15 9 16 15 13 8 -4z
m677 -5 c0 -5 -4 -10 -9 -10 -6 0 -13 5 -16 10 -3 6 1 10 9 10 9 0 16 -4 16
-10z"/>
<path d="M8973 2423 c9 -2 23 -2 30 0 6 3 -1 5 -18 5 -16 0 -22 -2 -12 -5z"/>
<path d="M710 2390 c-8 -5 -23 -11 -33 -14 -10 -3 -16 -10 -13 -15 3 -5 -1
-14 -9 -21 -8 -7 -15 -25 -15 -41 0 -24 7 -33 37 -47 27 -13 37 -14 40 -4 3 6
10 12 17 12 8 0 12 21 11 67 0 67 -7 79 -35 63z"/>
<path d="M7055 2369 c44 -5 107 -11 140 -13 94 -8 133 -14 153 -25 10 -5 40
-9 66 -7 26 1 49 -1 51 -4 3 -4 53 -11 112 -14 60 -4 116 -10 126 -12 17 -5
36 21 23 33 -10 10 -610 54 -706 51 -31 0 -20 -3 35 -9z"/>
<path d="M7811 2362 c-17 -32 -13 -63 8 -69 44 -11 36 -52 -15 -76 -25 -12
-36 -25 -40 -47 -8 -38 -20 -31 -28 17 -14 74 -3 69 -163 76 -89 4 -151 3
-158 -3 -26 -21 -1721 -18 -2355 4 -96 4 -508 11 -915 16 -407 5 -834 12 -950
15 l-210 6 27 -22 c22 -18 44 -23 125 -27 54 -3 117 -5 141 -5 23 0 42 -4 42
-9 0 -5 7 -5 17 0 9 6 29 6 45 2 15 -5 28 -5 28 -1 0 11 238 11 266 1 15 -6
26 -6 30 1 4 7 20 8 43 4 55 -11 85 -11 99 -1 9 7 16 5 23 -5 6 -10 9 -10 9
-1 0 18 18 15 23 -5 4 -16 5 -16 6 -1 1 13 9 15 38 12 21 -3 80 -5 132 -5 55
0 112 -6 136 -15 41 -13 161 -14 183 0 5 3 12 2 14 -3 4 -12 239 -17 346 -9
39 4 72 3 72 -2 0 -15 31 -20 50 -8 14 9 27 10 47 2 16 -5 43 -7 62 -3 39 8
155 4 172 -7 13 -8 189 -15 342 -14 119 1 120 1 182 -6 55 -6 61 -6 123 -4 23
1 42 6 42 10 0 10 105 6 138 -4 13 -5 22 -3 22 3 0 15 33 14 48 -1 9 -9 12 -9
12 0 0 7 11 12 25 12 14 0 25 -5 25 -10 0 -7 26 -10 70 -8 38 2 70 6 70 9 0 9
133 -1 145 -11 11 -9 75 -7 90 2 6 3 44 6 85 6 52 0 67 -2 50 -8 -18 -6 -3 -8
50 -9 41 -1 127 -6 190 -11 63 -6 174 -10 245 -10 72 0 143 1 159 1 15 0 34
-5 41 -11 9 -8 15 -8 20 -1 3 7 30 9 63 7 51 -4 60 -8 90 -42 18 -21 45 -44
60 -50 19 -9 22 -13 9 -13 -15 -1 -16 -5 -7 -21 6 -11 16 -19 22 -17 7 1 12
-3 13 -10 0 -6 3 -15 7 -18 4 -4 3 -16 -3 -26 -5 -11 -6 -18 -2 -17 19 5 83
-25 83 -39 0 -14 2 -14 19 1 19 17 47 14 36 -4 -3 -5 -1 -11 5 -15 5 -3 10 1
10 11 0 13 6 15 32 10 35 -7 56 -22 45 -32 -3 -4 -13 1 -22 10 -27 26 -34 18
-16 -19 16 -34 16 -34 86 -35 39 -1 81 -3 95 -4 14 -2 90 -7 170 -10 158 -8
250 -23 321 -54 52 -23 60 -30 114 -105 25 -35 54 -62 77 -73 24 -11 55 -41
88 -85 39 -52 57 -69 76 -69 28 0 30 10 8 51 -20 40 -12 47 22 20 15 -11 39
-21 53 -21 28 0 61 -11 271 -92 l135 -52 80 -83 c80 -82 99 -95 108 -70 6 15
132 -116 151 -158 19 -40 132 -159 140 -146 4 5 -3 25 -14 43 -11 18 -20 39
-20 46 0 20 20 14 29 -10 5 -13 25 -39 45 -57 20 -19 36 -40 36 -45 0 -19 49
-58 61 -50 9 5 10 2 6 -10 -8 -20 10 -58 52 -106 l30 -35 1 604 c0 643 -2 664
-45 535 -11 -32 -24 -62 -30 -66 -6 -5 -5 -8 3 -8 19 0 6 -17 -19 -23 -17 -5
-20 -2 -16 13 3 11 0 21 -7 23 -8 3 -8 8 2 18 15 16 16 79 1 79 -6 0 -13 -9
-16 -20 -3 -13 -17 -22 -39 -26 -19 -3 -37 -10 -40 -15 -7 -12 -24 -11 -24 2
0 11 -24 39 -34 39 -3 0 -6 -9 -6 -20 0 -11 -4 -20 -10 -20 -5 0 -10 -7 -10
-16 0 -10 -6 -14 -15 -10 -8 3 -15 0 -15 -6 0 -8 -7 -6 -17 4 -9 10 -16 30
-16 45 0 27 -2 28 -49 25 -38 -3 -48 -1 -48 11 0 28 -34 24 -75 -9 -37 -30
-54 -35 -140 -46 -16 -2 -20 3 -20 25 -1 15 -9 35 -18 44 -9 10 -17 13 -17 7
0 -6 -13 -9 -30 -6 -31 4 -42 33 -19 48 7 4 -1 12 -20 20 -26 11 -31 18 -26
34 5 17 2 20 -22 20 -47 0 -74 -11 -71 -29 2 -11 -6 -17 -27 -19 -16 -2 -36
-8 -42 -14 -10 -8 -13 -5 -13 10 0 14 -5 20 -14 16 -10 -4 -16 2 -18 18 -2 16
9 35 40 66 24 23 41 48 38 55 -3 7 -9 19 -12 28 -6 18 -82 59 -108 59 -10 0
-30 13 -46 29 -18 17 -40 28 -57 29 -103 1 -133 4 -133 11 0 5 -15 11 -32 14
-18 3 -53 10 -78 16 -50 11 -151 30 -190 35 -14 2 -49 6 -77 10 -53 8 -60 4
-54 -28 4 -22 -25 -23 -58 -2 -84 53 -257 118 -348 132 -35 5 -43 3 -52 -14z
m502 -159 c-7 -2 -19 -2 -25 0 -7 3 -2 5 12 5 14 0 19 -2 13 -5z m80 -43 c3
-12 14 -20 25 -20 29 0 53 -11 46 -21 -3 -5 0 -9 5 -9 6 0 11 -5 11 -10 0 -13
-32 -9 -42 4 -4 6 -12 5 -21 -3 -13 -10 -21 -7 -46 18 -18 17 -28 31 -24 31 4
0 -2 7 -13 15 -18 13 -17 14 17 15 28 0 38 -5 42 -20z m-688 -70 c3 -5 12 -7
21 -3 8 3 14 2 13 -3 -4 -21 2 -28 11 -14 8 12 10 9 10 -13 0 -25 -2 -27 -20
-17 -11 6 -20 15 -20 20 0 6 -7 10 -15 10 -8 0 -15 4 -15 9 0 5 -8 12 -17 14
-14 4 -13 5 4 6 12 0 24 -3 28 -9z m-121 -21 c-3 -5 -10 -7 -15 -3 -5 3 -7 10
-3 15 3 5 10 7 15 3 5 -3 7 -10 3 -15z m110 -81 c-3 -5 -12 -4 -20 3 -19 16
-18 18 6 12 11 -3 17 -9 14 -15z m16 -58 c-19 -12 -33 -8 -38 11 -3 12 -2 12
6 0 12 -16 35 -5 26 12 -4 8 -2 7 7 -1 12 -11 12 -14 -1 -22z m1310 -74 c0 -2
-7 -6 -15 -10 -8 -3 -15 -1 -15 4 0 6 7 10 15 10 8 0 15 -2 15 -4z m270 -156
c0 -5 -9 -10 -21 -10 -11 0 -17 5 -14 10 3 6 13 10 21 10 8 0 14 -4 14 -10z
m674 -905 c21 -32 20 -37 -7 -24 -12 6 -23 19 -23 30 0 26 10 24 30 -6z"/>
<path d="M2998 2360 c-10 -23 -6 -52 5 -41 5 5 7 19 5 32 -3 17 -6 20 -10 9z"/>
<path d="M8670 2250 c0 -5 5 -10 10 -10 6 0 10 5 10 10 0 6 -4 10 -10 10 -5 0
-10 -4 -10 -10z"/>
<path d="M5085 2153 c-119 -3 -145 -8 -145 -28 0 -8 -9 -15 -20 -15 -11 0 -20
7 -20 15 0 8 -4 15 -10 15 -5 0 -9 -6 -7 -12 3 -20 -218 -22 -237 -3 -12 12
-15 12 -20 0 -7 -20 -65 -20 -72 0 -7 18 -43 20 -50 2 -5 -15 -111 -12 -131 4
-7 6 -12 6 -15 0 -3 -10 -15 -11 -106 -11 -18 0 -41 4 -52 10 -16 8 -20 8 -20
-4 0 -20 -28 -28 -38 -9 -8 14 -10 13 -15 -2 -4 -9 -12 -13 -19 -9 -7 4 -34 6
-61 5 -28 -1 -53 2 -56 7 -7 10 -142 17 -291 14 -86 -2 -98 -4 -122 -26 -14
-14 -28 -23 -30 -21 -2 3 -20 7 -40 10 -30 5 -36 3 -41 -15 -5 -19 -13 -20
-117 -20 l-111 0 3 -42 c3 -41 4 -43 38 -46 19 -1 50 -5 68 -8 29 -4 31 -7 17
-20 -8 -9 -15 -18 -15 -22 0 -4 -51 -6 -114 -4 l-114 4 -4 -44 c-5 -43 7 -98
22 -98 4 0 18 8 31 19 48 36 135 61 219 61 52 0 82 4 87 13 6 8 43 12 128 12
66 0 248 2 405 4 283 4 285 4 295 -18 9 -20 15 -21 220 -22 115 0 397 -4 625
-8 496 -9 661 -5 653 15 -3 10 2 13 18 12 13 -1 51 7 84 17 33 10 71 21 84 24
14 4 26 12 29 19 2 8 -6 8 -30 1 -38 -11 -142 -12 -280 -3 l-96 7 -5 31 c-7
52 -3 54 91 49 48 -2 103 -5 122 -6 41 -1 221 40 235 54 5 5 -60 9 -177 9
-103 0 -193 3 -202 6 -11 4 -16 19 -16 46 l0 39 -237 -3 c-131 -2 -283 -4
-338 -5z m-700 -116 c25 -19 11 -41 -17 -26 -16 9 -120 10 -384 4 -199 -4
-371 -4 -383 0 -33 10 -25 24 12 19 25 -3 556 7 718 14 19 1 43 -4 54 -11z
m495 -47 c0 -13 -7 -20 -18 -20 -26 0 -34 11 -21 27 17 20 39 16 39 -7z m-472
-5 c1 -5 -7 -9 -18 -8 -11 0 -32 1 -46 2 -14 1 -23 5 -20 9 7 11 80 8 84 -3z
m149 1 c-2 -6 -20 -12 -40 -14 -28 -2 -37 1 -37 12 0 11 11 15 40 14 26 0 39
-5 37 -12z m263 1 c0 -19 -241 -18 -248 1 -3 9 26 12 122 12 97 0 126 -3 126
-13z m-895 -7 c-3 -5 -13 -10 -21 -10 -8 0 -14 5 -14 10 0 6 9 10 21 10 11 0
17 -4 14 -10z m55 0 c0 -13 -11 -13 -30 0 -12 8 -11 10 8 10 12 0 22 -4 22
-10z m50 0 c0 -5 -7 -10 -16 -10 -8 0 -12 5 -9 10 3 6 10 10 16 10 5 0 9 -4 9
-10z m42 -2 c-9 -9 -15 -9 -24 0 -9 9 -7 12 12 12 19 0 21 -3 12 -12z m81 5
c-7 -2 -19 -2 -25 0 -7 3 -2 5 12 5 14 0 19 -2 13 -5z m90 0 c-13 -2 -35 -2
-50 0 -16 2 -5 4 22 4 28 0 40 -2 28 -4z m-783 -28 c-7 -9 -15 -13 -19 -10 -3
3 1 10 9 15 21 14 24 12 10 -5z m2373 -52 c-7 -2 -21 -2 -30 0 -10 3 -4 5 12
5 17 0 24 -2 18 -5z"/>
<path d="M2296 2115 c-10 -8 -15 -19 -11 -25 5 -8 10 -8 20 0 10 8 14 7 18 -2
3 -7 6 -3 6 9 1 28 -10 34 -33 18z"/>
<path d="M1878 2064 c4 -49 1 -57 -23 -76 -20 -15 -25 -27 -21 -43 4 -14 1
-26 -7 -29 -6 -3 -2 -3 11 0 12 3 22 1 22 -4 0 -5 -10 -13 -22 -16 -19 -5 -9
-13 60 -46 95 -46 111 -49 88 -17 -33 46 -65 124 -81 197 -21 93 -31 106 -27
34z m-11 -120 c-3 -3 -12 -4 -19 -1 -8 3 -5 6 6 6 11 1 17 -2 13 -5z"/>
<path d="M7335 2110 c-3 -5 3 -10 14 -10 12 0 21 5 21 10 0 6 -6 10 -14 10 -8
0 -18 -4 -21 -10z"/>
<path d="M7285 2090 c-3 -5 1 -10 9 -10 9 0 16 5 16 10 0 6 -4 10 -9 10 -6 0
-13 -4 -16 -10z"/>
<path d="M7337 2023 c-4 -3 -7 -16 -6 -27 0 -12 3 -15 6 -8 2 6 13 12 24 12
23 0 25 15 3 24 -19 7 -19 7 -27 -1z"/>
<path d="M7400 2010 c0 -5 5 -10 10 -10 6 0 10 5 10 10 0 6 -4 10 -10 10 -5 0
-10 -4 -10 -10z"/>
<path d="M4154 1863 c10 -10 46 -11 46 -1 0 4 -12 8 -27 8 -14 0 -23 -3 -19
-7z"/>
<path d="M7736 1835 c-19 -15 -19 -15 2 -15 13 0 22 6 22 15 0 18 0 18 -24 0z"/>
<path d="M7388 1833 c7 -3 16 -2 19 1 4 3 -2 6 -13 5 -11 0 -14 -3 -6 -6z"/>
<path d="M9330 1775 c0 -8 5 -15 10 -15 6 0 10 7 10 15 0 8 -4 15 -10 15 -5 0
-10 -7 -10 -15z"/>
<path d="M3697 1448 c-8 -13 -20 -45 -27 -73 -13 -53 -55 -202 -90 -325 -13
-41 -26 -95 -30 -120 -4 -25 -17 -70 -29 -100 -11 -30 -21 -65 -21 -77 0 -12
-13 -61 -29 -110 -16 -48 -34 -110 -40 -138 -5 -27 -19 -77 -31 -110 -11 -33
-26 -82 -31 -110 -6 -27 -23 -86 -39 -130 -15 -44 -30 -97 -33 -118 l-6 -37
124 0 125 0 20 40 c13 25 24 74 29 128 5 50 18 107 30 134 12 25 24 75 27 110
4 34 15 82 26 106 10 23 22 73 25 110 3 37 14 84 25 105 10 21 21 68 25 105 3
37 15 87 26 112 11 25 21 70 23 101 2 33 12 73 25 98 14 27 21 60 21 94 0 34
6 59 18 74 23 29 35 106 20 133 -9 18 -20 20 -90 20 -72 0 -81 -2 -93 -22z
m34 -211 c-13 -13 -26 -3 -16 12 3 6 11 8 17 5 6 -4 6 -10 -1 -17z"/>
<path d="M3969 1443 c-18 -45 -59 -203 -59 -226 0 -12 -9 -49 -20 -81 -11 -33
-20 -71 -20 -85 0 -14 -9 -55 -20 -89 -11 -35 -20 -78 -20 -96 0 -17 -9 -58
-21 -90 -11 -32 -24 -86 -29 -120 -5 -33 -18 -92 -29 -131 -12 -38 -21 -83
-21 -99 0 -16 -11 -60 -25 -98 -14 -38 -25 -86 -25 -107 0 -21 -11 -70 -25
-109 -43 -122 -60 -112 199 -112 256 0 236 -9 236 101 0 31 9 85 20 120 13 40
20 86 19 124 -2 39 4 74 15 100 11 24 19 70 20 115 1 41 8 86 16 100 7 14 14
57 16 96 1 40 7 82 14 94 6 12 14 56 17 98 3 43 12 89 19 104 8 15 14 57 14
93 0 39 6 75 14 88 20 32 40 182 27 205 -8 16 -26 20 -102 25 -51 4 -121 7
-156 7 -60 0 -64 -2 -74 -27z m243 -15 c-9 -9 -15 -9 -24 0 -9 9 -7 12 12 12
19 0 21 -3 12 -12z"/>
<path d="M4410 1460 c-18 -11 -43 -86 -45 -140 -2 -30 -8 -75 -15 -100 -7 -25
-12 -61 -11 -80 0 -19 -6 -57 -14 -84 -8 -27 -15 -69 -15 -93 0 -24 -9 -77
-20 -118 -11 -42 -18 -86 -14 -99 3 -13 -4 -55 -15 -93 -12 -39 -21 -88 -21
-109 0 -21 -9 -76 -20 -122 -11 -46 -20 -101 -20 -122 0 -21 -7 -65 -15 -97
-8 -32 -17 -91 -20 -130 l-6 -73 215 0 214 0 16 89 c10 52 14 106 10 129 -4
23 -1 64 7 94 7 29 13 87 14 128 1 41 7 99 13 129 7 30 9 76 6 101 -4 30 -2
56 6 70 7 12 13 61 15 109 2 47 8 109 14 138 5 28 6 64 2 80 -5 18 -3 37 5 55
15 29 21 128 10 147 -8 13 37 61 57 61 28 0 35 -23 26 -79 -4 -30 -6 -65 -3
-78 4 -13 1 -43 -5 -66 -10 -39 -15 -94 -26 -296 -2 -41 -7 -81 -10 -89 -8
-21 -28 -239 -30 -332 -1 -41 -10 -109 -19 -150 -9 -41 -15 -97 -13 -125 1
-27 -2 -65 -6 -83 l-9 -32 224 0 224 0 1 58 c0 31 3 167 7 302 8 287 8 325 8
365 0 17 1 84 4 150 4 133 6 205 6 250 -1 106 4 213 11 232 5 13 2 35 -7 56
l-14 35 -239 6 c-131 3 -291 8 -356 9 -64 2 -121 0 -127 -3z m230 -51 c0 -20
-24 -26 -35 -9 -4 6 -4 17 -1 25 7 20 36 7 36 -16z m-12 -141 c13 -13 -2 -38
-23 -38 -21 0 -36 25 -23 38 7 7 17 12 23 12 6 0 16 -5 23 -12z m337 -368 c0
-19 -45 -26 -56 -9 -12 20 0 30 29 27 16 -2 27 -9 27 -18z"/>
<path d="M2589 1443 c-13 -16 -12 -17 4 -4 16 13 21 21 13 21 -2 0 -10 -8 -17
-17z"/>
<path d="M5243 1428 c-18 -20 -21 -79 -21 -483 0 -72 -1 -81 -8 -260 -3 -77
-6 -153 -6 -170 -1 -16 -1 -48 0 -70 1 -44 -6 -371 -9 -395 -7 -52 -16 -50
222 -50 l222 0 -8 73 c-4 39 -9 110 -11 157 -7 233 -14 348 -23 378 -7 22 -6
43 1 63 6 18 7 51 3 82 -4 29 -8 88 -10 132 -15 477 -16 499 -33 527 -16 28
-16 28 -132 29 -63 1 -127 3 -142 4 -17 3 -33 -4 -45 -17z m247 -12 c0 -9 -40
-13 -46 -5 -3 5 6 9 20 9 14 0 26 -2 26 -4z"/>
<path d="M5870 1411 c-15 -28 -12 -87 5 -121 8 -16 11 -31 6 -34 -4 -3 -50 0
-101 6 -86 11 -94 10 -106 -7 -8 -11 -14 -44 -14 -77 0 -72 9 -78 129 -78 60
0 92 -4 97 -12 15 -24 13 -142 -3 -166 -13 -21 -20 -23 -95 -21 -105 2 -112
-5 -104 -111 7 -104 16 -333 15 -405 0 -33 3 -133 6 -222 l7 -163 259 0 259 0
0 32 c0 42 -26 231 -45 328 -8 41 -17 114 -20 162 -3 48 -10 99 -15 113 -6 14
-10 50 -10 79 0 28 -6 76 -14 106 -8 30 -14 85 -14 121 0 36 -5 76 -12 89 -7
13 -14 58 -15 100 -1 42 -5 83 -10 90 -5 8 -10 47 -10 85 0 51 -5 79 -18 98
-16 25 -22 27 -92 27 -63 0 -76 -3 -85 -19z m100 -21 c0 -11 -4 -20 -10 -20
-5 0 -10 9 -10 20 0 11 5 20 10 20 6 0 10 -9 10 -20z m34 -175 c-4 -8 -11 -12
-16 -9 -6 4 -5 10 3 15 19 12 19 11 13 -6z"/>
<path d="M1470 1316 c0 -2 7 -7 16 -10 8 -3 12 -2 9 4 -6 10 -25 14 -25 6z"/>
<path d="M1372 1293 c-64 -17 -77 -35 -29 -41 31 -4 37 -22 7 -22 -23 0 -42
-30 -31 -49 17 -26 189 -17 217 12 4 4 20 7 35 7 39 0 43 13 12 44 -30 30 -33
31 -59 11 -10 -8 -27 -15 -38 -15 -15 0 -17 6 -14 30 7 44 -4 47 -100 23z"/>
<path d="M1266 1270 c-19 -6 -19 -7 2 -12 12 -4 24 -2 27 2 8 13 -8 18 -29 10z"/>
<path d="M1095 1160 c3 -6 -4 -10 -17 -11 -27 0 -118 -101 -118 -131 0 -12 -7
-18 -22 -18 -27 0 -21 -5 17 -14 20 -4 25 -3 16 3 -11 7 -7 13 18 25 17 9 31
21 31 26 0 6 9 10 19 10 11 0 23 5 26 10 5 8 11 7 20 0 8 -7 18 -9 23 -6 20
12 62 -19 72 -53 5 -19 8 -37 5 -39 -2 -2 -32 -5 -67 -7 -35 -1 -63 -4 -63 -5
0 -1 -15 -3 -34 -6 -19 -2 -42 -10 -50 -18 -9 -7 -20 -12 -26 -10 -5 2 -18 -9
-27 -26 -17 -29 -16 -29 13 -44 16 -8 31 -10 35 -5 3 5 16 9 30 9 13 0 24 5
24 10 0 6 12 15 26 20 36 14 83 -12 91 -50 6 -31 23 -42 23 -15 0 18 20 20 21
3 6 -66 5 -77 -2 -72 -5 3 -9 12 -9 20 0 10 -7 13 -24 8 -18 -4 -25 -1 -29 13
-3 10 -6 -4 -7 -32 -2 -49 -2 -49 -11 -17 -11 38 -34 44 -27 7 4 -19 1 -25
-11 -23 -9 2 -19 10 -23 18 -4 10 -7 7 -7 -11 -1 -14 2 -29 7 -33 4 -4 8 -32
8 -61 2 -60 12 -85 25 -64 13 21 18 7 24 -67 7 -72 24 -112 26 -58 1 25 2 24
9 -11 5 -22 4 -44 -1 -49 -18 -19 -10 -38 14 -32 12 3 16 3 10 0 -17 -8 -16
-34 1 -34 8 0 16 10 20 23 3 13 16 28 30 35 13 6 39 24 57 40 19 16 52 39 75
50 49 25 132 113 164 174 31 59 79 147 100 183 32 53 87 280 70 290 -12 8 -78
-48 -84 -72 -4 -12 -28 -52 -54 -88 -26 -36 -57 -80 -70 -98 -13 -18 -30 -31
-37 -29 -10 2 -12 -8 -8 -39 5 -31 3 -40 -6 -35 -6 4 -9 11 -6 16 3 5 1 11 -5
15 -5 3 -10 15 -10 26 0 10 -4 19 -9 19 -5 0 -12 8 -14 18 -3 10 -5 6 -6 -10
0 -16 3 -28 8 -28 6 0 10 -8 10 -17 -1 -10 3 -36 7 -57 6 -34 5 -39 -9 -33
-14 5 -17 0 -17 -33 0 -28 -4 -40 -14 -40 -8 0 -17 -14 -21 -31 -5 -23 -10
-28 -18 -20 -19 19 -23 13 -20 -31 2 -36 0 -40 -9 -24 -17 30 -18 94 -2 100 8
3 14 19 14 35 0 16 5 33 10 36 6 3 10 -1 10 -9 0 -9 4 -16 8 -16 5 0 6 21 2
47 -4 26 -6 72 -4 101 3 49 1 54 -17 49 -12 -3 -19 0 -19 9 0 8 6 14 14 14 10
0 11 7 2 35 -6 20 -17 35 -26 34 -10 0 -11 -2 -2 -6 15 -6 16 -36 0 -31 -15 5
-36 64 -37 103 -1 31 -30 65 -54 65 -7 0 -22 7 -34 15 -16 12 -23 12 -27 2 -2
-6 -3 5 -1 26 3 28 0 37 -11 37 -9 0 -12 -4 -9 -10z m-18 -497 c-3 -10 -5 -4
-5 12 0 17 2 24 5 18 2 -7 2 -21 0 -30z m178 7 c3 -5 1 -10 -4 -10 -6 0 -11 5
-11 10 0 6 2 10 4 10 3 0 8 -4 11 -10z m-138 -22 c-3 -8 -6 -5 -6 6 -1 11 2
17 5 13 3 -3 4 -12 1 -19z m-27 -48 c0 -5 -4 -10 -10 -10 -5 0 -10 5 -10 10 0
6 5 10 10 10 6 0 10 -4 10 -10z"/>
<path d="M9500 1111 c0 -5 3 -17 6 -26 5 -13 8 -14 15 -3 12 19 11 25 -6 32
-8 3 -15 1 -15 -3z"/>
<path d="M1375 1050 c3 -5 8 -10 11 -10 2 0 4 5 4 10 0 6 -5 10 -11 10 -5 0
-7 -4 -4 -10z"/>
<path d="M1352 980 c7 -10 14 -18 15 -16 6 6 -9 36 -18 36 -5 0 -4 -9 3 -20z"/>
<path d="M1441 894 c0 -11 3 -14 6 -6 3 7 2 16 -1 19 -3 4 -6 -2 -5 -13z"/>
<path d="M1411 854 c0 -11 3 -14 6 -6 3 7 2 16 -1 19 -3 4 -6 -2 -5 -13z"/>
<path d="M1343 755 c-6 -7 -8 -18 -3 -26 12 -18 23 -6 18 19 -2 16 -5 17 -15
7z"/>
<path d="M1090 400 c0 -5 5 -10 10 -10 6 0 10 5 10 10 0 6 -4 10 -10 10 -5 0
-10 -4 -10 -10z"/>
<path d="M995 360 c-3 -5 -1 -10 4 -10 6 0 11 5 11 10 0 6 -2 10 -4 10 -3 0
-8 -4 -11 -10z"/>
<path d="M9331 276 c-4 -53 -4 -49 13 -131 8 -39 22 -87 32 -108 17 -36 19
-37 71 -37 58 0 63 6 39 52 -8 14 -19 43 -26 65 -20 61 -95 188 -116 197 -6 2
-11 -13 -13 -38z"/>
</g>
</svg>
